<svg width="27" height="29" viewBox="0 0 27 29" fill="none" xmlns="http://www.w3.org/2000/svg">
<path d="M6.17337 5.01341C6.14958 4.48065 6.23256 3.94851 6.41744 3.44828C6.60231 2.94806 6.88535 2.48986 7.2499 2.10062C7.61446 1.71138 8.05316 1.39897 8.54022 1.18177C9.02728 0.964562 9.55285 0.846943 10.086 0.83583C10.6192 0.824716 11.1492 0.920332 11.6449 1.11705C12.1406 1.31378 12.5919 1.60763 12.9724 1.98134C13.3528 2.35505 13.6547 2.80106 13.8603 3.29315C14.0659 3.78523 14.1709 4.31345 14.1694 4.84675V22.1801M6.17337 5.01341C5.38964 5.21493 4.66204 5.59215 4.04568 6.1165C3.42932 6.64085 2.94036 7.29858 2.61583 8.03988C2.2913 8.78118 2.13972 9.58661 2.17256 10.3952C2.20539 11.2037 2.4218 11.9942 2.80537 12.7067M6.17337 5.01341C6.19974 5.65839 6.38181 6.28741 6.70404 6.84675M2.80537 12.7067C2.13094 13.2547 1.60061 13.959 1.26049 14.7587C0.920372 15.5583 0.78078 16.4289 0.853855 17.2947C0.92693 18.1606 1.21046 18.9955 1.67978 19.7268C2.1491 20.4581 2.78999 21.0636 3.5467 21.4907M2.80537 12.7067C3.04929 12.5081 3.31031 12.3327 3.58537 12.1801M3.5467 21.4907C3.45326 22.2137 3.50902 22.9482 3.71055 23.6488C3.91208 24.3494 4.2551 25.0012 4.71842 25.564C5.18173 26.1268 5.75552 26.5887 6.40433 26.9211C7.05314 27.2535 7.76321 27.4493 8.49067 27.4965C9.21814 27.5437 9.94756 27.4413 10.6339 27.1956C11.3202 26.9498 11.9489 26.566 12.481 26.0678C13.0132 25.5695 13.4376 24.9675 13.728 24.2988C14.0184 23.6302 14.1686 22.9091 14.1694 22.1801M3.5467 21.4907C4.34706 21.9422 5.25048 22.1805 6.16937 22.1801M14.1694 22.1801H22.1694C22.8766 22.1801 23.5549 22.461 24.055 22.9611C24.5551 23.4612 24.836 24.1395 24.836 24.8467V26.1801M10.1694 15.5134C11.2888 15.1196 12.2663 14.4027 12.9783 13.4534C13.6903 12.5041 14.1048 11.365 14.1694 10.1801M14.1694 15.5134H19.5027M14.1694 8.84675H24.836M19.5027 8.84675V4.84675C19.5027 4.1395 19.7837 3.46123 20.2838 2.96113C20.7838 2.46103 21.4621 2.18008 22.1694 2.18008M20.1694 15.5134C20.1694 15.8816 19.8709 16.1801 19.5027 16.1801C19.1345 16.1801 18.836 15.8816 18.836 15.5134C18.836 15.1452 19.1345 14.8467 19.5027 14.8467C19.8709 14.8467 20.1694 15.1452 20.1694 15.5134ZM22.836 2.18008C22.836 2.54827 22.5376 2.84675 22.1694 2.84675C21.8012 2.84675 21.5027 2.54827 21.5027 2.18008C21.5027 1.81189 21.8012 1.51341 22.1694 1.51341C22.5376 1.51341 22.836 1.81189 22.836 2.18008ZM25.5027 26.1801C25.5027 26.5483 25.2042 26.8467 24.836 26.8467C24.4678 26.8467 24.1694 26.5483 24.1694 26.1801C24.1694 25.8119 24.4678 25.5134 24.836 25.5134C25.2042 25.5134 25.5027 25.8119 25.5027 26.1801ZM25.5027 8.84675C25.5027 9.21494 25.2042 9.51341 24.836 9.51341C24.4678 9.51341 24.1694 9.21494 24.1694 8.84675C24.1694 8.47856 24.4678 8.18008 24.836 8.18008C25.2042 8.18008 25.5027 8.47856 25.5027 8.84675Z" stroke="#E4E4E7" stroke-width="1.67" stroke-linecap="round" stroke-linejoin="round"/>
</svg>
