<svg width="1336" height="165" viewBox="0 0 1336 165" fill="none" xmlns="http://www.w3.org/2000/svg">
<path d="M37.4022 129.797H10.8776L11.0449 110.023H37.4022C43.9845 110.023 49.5349 108.53 54.0532 105.544C58.5716 102.502 61.9743 98.08 64.2614 92.2775C66.6043 86.4749 67.7757 79.4612 67.7757 71.2362V65.2365C67.7757 58.9269 67.1063 53.3778 65.7676 48.5893C64.4846 43.8008 62.5601 39.7728 59.9941 36.5054C57.4281 33.2379 54.2764 30.7873 50.5389 29.1536C46.8015 27.4635 42.5063 26.6185 37.6532 26.6185H10.3755V6.76025H37.6532C45.7974 6.76025 53.2444 8.16864 59.9941 10.9854C66.7995 13.7458 72.6846 17.7175 77.6492 22.9004C82.6139 28.0832 86.435 34.2801 89.1125 41.4911C91.8459 48.6457 93.2125 56.6171 93.2125 65.4055V71.2362C93.2125 79.9682 91.8459 87.9396 89.1125 95.1506C86.435 102.362 82.6139 108.558 77.6492 113.741C72.7404 118.868 66.8553 122.839 59.9941 125.656C53.1886 128.417 45.658 129.797 37.4022 129.797ZM25.1021 6.76025V129.797H0V6.76025H25.1021Z" fill="white"/>
<path d="M154.053 109.178V68.4476C154.053 65.5181 153.579 63.0112 152.63 60.9268C151.682 58.786 150.204 57.1241 148.195 55.9411C146.243 54.7581 143.705 54.1665 140.581 54.1665C137.904 54.1665 135.589 54.6454 133.636 55.6031C131.684 56.5045 130.178 57.8283 129.118 59.5747C128.058 61.2648 127.528 63.2647 127.528 65.5745H103.43C103.43 61.6873 104.323 57.9973 106.108 54.5045C107.893 51.0117 110.487 47.9415 113.889 45.2937C117.292 42.5896 121.336 40.477 126.022 38.956C130.763 37.4349 136.063 36.6744 141.92 36.6744C148.949 36.6744 155.196 37.8574 160.663 40.2235C166.13 42.5896 170.425 46.1387 173.549 50.8709C176.728 55.6031 178.318 61.5183 178.318 68.6166V107.742C178.318 112.755 178.625 116.868 179.238 120.079C179.852 123.234 180.745 125.994 181.916 128.36V129.797H157.567C156.396 127.318 155.503 124.22 154.889 120.502C154.332 116.727 154.053 112.953 154.053 109.178ZM157.232 74.1093L157.4 87.8833H143.928C140.749 87.8833 137.987 88.2495 135.644 88.9818C133.302 89.7142 131.377 90.7564 129.871 92.1085C128.365 93.4042 127.249 94.9252 126.524 96.6716C125.855 98.418 125.52 100.333 125.52 102.418C125.52 104.502 125.994 106.389 126.942 108.08C127.891 109.713 129.257 111.009 131.042 111.967C132.827 112.868 134.919 113.319 137.318 113.319C140.944 113.319 144.095 112.586 146.773 111.122C149.451 109.657 151.515 107.854 152.965 105.713C154.471 103.573 155.252 101.545 155.308 99.6292L161.667 109.939C160.774 112.248 159.547 114.643 157.985 117.121C156.479 119.6 154.555 121.938 152.212 124.135C149.869 126.276 147.052 128.05 143.761 129.459C140.47 130.811 136.565 131.487 132.046 131.487C126.301 131.487 121.085 130.332 116.399 128.022C111.77 125.656 108.088 122.417 105.355 118.304C102.677 114.136 101.338 109.403 101.338 104.108C101.338 99.3194 102.231 95.0661 104.016 91.3479C105.801 87.6298 108.423 84.5032 111.881 81.9681C115.395 79.3766 119.774 77.4331 125.018 76.1374C130.261 74.7853 136.342 74.1093 143.259 74.1093H157.232Z" fill="white"/>
<path d="M236.481 38.3644V55.6031H183.766V38.3644H236.481ZM196.819 15.8021H220.917V102.249C220.917 104.897 221.252 106.925 221.921 108.333C222.647 109.741 223.706 110.727 225.101 111.291C226.496 111.798 228.253 112.051 230.372 112.051C231.879 112.051 233.217 111.995 234.389 111.882C235.616 111.713 236.648 111.544 237.485 111.375L237.568 129.29C235.504 129.966 233.273 130.501 230.874 130.895C228.476 131.29 225.826 131.487 222.925 131.487C217.626 131.487 212.996 130.614 209.036 128.867C205.131 127.065 202.119 124.191 199.999 120.248C197.879 116.305 196.819 111.122 196.819 104.699V15.8021Z" fill="white"/>
<path d="M294.308 109.178V68.4476C294.308 65.5181 293.834 63.0112 292.886 60.9268C291.938 58.786 290.459 57.1241 288.451 55.9411C286.499 54.7581 283.961 54.1665 280.837 54.1665C278.159 54.1665 275.844 54.6454 273.892 55.6031C271.94 56.5045 270.434 57.8283 269.374 59.5747C268.314 61.2648 267.784 63.2647 267.784 65.5745H243.686C243.686 61.6873 244.578 57.9973 246.363 54.5045C248.148 51.0117 250.742 47.9415 254.145 45.2937C257.548 42.5896 261.592 40.477 266.278 38.956C271.019 37.4349 276.319 36.6744 282.176 36.6744C289.204 36.6744 295.452 37.8574 300.919 40.2235C306.385 42.5896 310.681 46.1387 313.804 50.8709C316.984 55.6031 318.574 61.5183 318.574 68.6166V107.742C318.574 112.755 318.881 116.868 319.494 120.079C320.108 123.234 321 125.994 322.172 128.36V129.797H297.823C296.651 127.318 295.759 124.22 295.145 120.502C294.587 116.727 294.308 112.953 294.308 109.178ZM297.488 74.1093L297.655 87.8833H284.184C281.004 87.8833 278.243 88.2495 275.9 88.9818C273.557 89.7142 271.633 90.7564 270.127 92.1085C268.621 93.4042 267.505 94.9252 266.78 96.6716C266.11 98.418 265.776 100.333 265.776 102.418C265.776 104.502 266.25 106.389 267.198 108.08C268.146 109.713 269.513 111.009 271.298 111.967C273.083 112.868 275.175 113.319 277.574 113.319C281.2 113.319 284.351 112.586 287.029 111.122C289.706 109.657 291.77 107.854 293.221 105.713C294.727 103.573 295.508 101.545 295.564 99.6292L301.923 109.939C301.03 112.248 299.803 114.643 298.241 117.121C296.735 119.6 294.81 121.938 292.468 124.135C290.125 126.276 287.308 128.05 284.017 129.459C280.725 130.811 276.821 131.487 272.302 131.487C266.557 131.487 261.341 130.332 256.655 128.022C252.025 125.656 248.344 122.417 245.61 118.304C242.933 114.136 241.594 109.403 241.594 104.108C241.594 99.3194 242.486 95.0661 244.272 91.3479C246.057 87.6298 248.678 84.5032 252.137 81.9681C255.651 79.3766 260.03 77.4331 265.274 76.1374C270.517 74.7853 276.597 74.1093 283.515 74.1093H297.488Z" fill="white"/>
<path d="M435.234 97.6012C435.234 95.4041 434.899 93.4323 434.23 91.6859C433.616 89.8832 432.444 88.2495 430.715 86.7848C428.986 85.2637 426.559 83.7708 423.436 82.3061C420.312 80.8414 416.268 79.3203 411.303 77.7429C405.78 75.9402 400.537 73.9121 395.572 71.6587C390.663 69.4053 386.312 66.7857 382.519 63.7999C378.782 60.7578 375.825 57.2368 373.65 53.237C371.53 49.2372 370.47 44.5895 370.47 39.294C370.47 34.1674 371.586 29.5198 373.817 25.351C376.048 21.1258 379.172 17.5203 383.189 14.5345C387.205 11.4924 391.946 9.15451 397.413 7.52078C402.936 5.88705 408.988 5.07019 415.57 5.07019C424.551 5.07019 432.389 6.70392 439.083 9.97137C445.777 13.2388 450.964 17.7175 454.646 23.4074C458.383 29.0973 460.252 35.604 460.252 42.9276H435.317C435.317 39.3221 434.564 36.1674 433.058 33.4633C431.608 30.7028 429.376 28.5339 426.364 26.9565C423.408 25.3791 419.67 24.5904 415.152 24.5904C410.801 24.5904 407.175 25.2664 404.274 26.6185C401.374 27.9142 399.198 29.6888 397.748 31.9422C396.297 34.1393 395.572 36.618 395.572 39.3785C395.572 41.4629 396.074 43.3501 397.078 45.0402C398.138 46.7303 399.7 48.3076 401.764 49.7724C403.828 51.2371 406.366 52.6173 409.378 53.913C412.391 55.2087 415.877 56.4763 419.838 57.7157C426.476 59.7437 432.305 62.0253 437.325 64.5604C442.402 67.0955 446.641 69.9405 450.044 73.0952C453.447 76.25 456.013 79.8273 457.742 83.8271C459.471 87.827 460.336 92.362 460.336 97.4322C460.336 102.784 459.304 107.573 457.24 111.798C455.176 116.023 452.191 119.6 448.287 122.53C444.382 125.459 439.724 127.684 434.313 129.205C428.902 130.726 422.85 131.487 416.156 131.487C410.131 131.487 404.191 130.698 398.333 129.121C392.476 127.487 387.149 125.037 382.352 121.769C377.61 118.502 373.817 114.333 370.972 109.263C368.127 104.192 366.705 98.1927 366.705 91.2634H391.891C391.891 95.0942 392.476 98.3335 393.648 100.981C394.819 103.629 396.465 105.77 398.585 107.404C400.76 109.037 403.326 110.22 406.283 110.953C409.295 111.685 412.586 112.051 416.156 112.051C420.507 112.051 424.077 111.432 426.866 110.192C429.711 108.953 431.803 107.235 433.142 105.037C434.536 102.84 435.234 100.362 435.234 97.6012Z" fill="white"/>
<path d="M520.004 109.178V68.4476C520.004 65.5181 519.53 63.0112 518.582 60.9268C517.634 58.786 516.155 57.1241 514.147 55.9411C512.195 54.7581 509.657 54.1665 506.533 54.1665C503.855 54.1665 501.54 54.6454 499.588 55.6031C497.636 56.5045 496.13 57.8283 495.07 59.5747C494.01 61.2648 493.48 63.2647 493.48 65.5745H469.382C469.382 61.6873 470.274 57.9973 472.059 54.5045C473.844 51.0117 476.438 47.9415 479.841 45.2937C483.244 42.5896 487.288 40.477 491.974 38.956C496.715 37.4349 502.015 36.6744 507.872 36.6744C514.9 36.6744 521.148 37.8574 526.615 40.2235C532.081 42.5896 536.377 46.1387 539.5 50.8709C542.68 55.6031 544.27 61.5183 544.27 68.6166V107.742C544.27 112.755 544.577 116.868 545.19 120.079C545.804 123.234 546.696 125.994 547.868 128.36V129.797H523.519C522.347 127.318 521.455 124.22 520.841 120.502C520.283 116.727 520.004 112.953 520.004 109.178ZM523.184 74.1093L523.351 87.8833H509.88C506.7 87.8833 503.939 88.2495 501.596 88.9818C499.253 89.7142 497.329 90.7564 495.823 92.1085C494.317 93.4042 493.201 94.9252 492.476 96.6716C491.806 98.418 491.472 100.333 491.472 102.418C491.472 104.502 491.946 106.389 492.894 108.08C493.842 109.713 495.209 111.009 496.994 111.967C498.779 112.868 500.871 113.319 503.27 113.319C506.896 113.319 510.047 112.586 512.725 111.122C515.402 109.657 517.466 107.854 518.917 105.713C520.423 103.573 521.204 101.545 521.26 99.6292L527.619 109.939C526.726 112.248 525.499 114.643 523.937 117.121C522.431 119.6 520.506 121.938 518.164 124.135C515.821 126.276 513.004 128.05 509.713 129.459C506.421 130.811 502.517 131.487 497.998 131.487C492.253 131.487 487.037 130.332 482.351 128.022C477.721 125.656 474.04 122.417 471.306 118.304C468.629 114.136 467.29 109.403 467.29 104.108C467.29 99.3194 468.182 95.0661 469.967 91.3479C471.753 87.6298 474.374 84.5032 477.833 81.9681C481.347 79.3766 485.726 77.4331 490.97 76.1374C496.213 74.7853 502.293 74.1093 509.21 74.1093H523.184Z" fill="white"/>
<path d="M582.183 55.9411V164.95H558.085V38.3644H580.426L582.183 55.9411ZM639.5 83.0666V84.8412C639.5 91.4888 638.719 97.6575 637.157 103.347C635.651 109.037 633.419 113.995 630.463 118.22C627.507 122.389 623.825 125.656 619.418 128.022C615.067 130.332 610.047 131.487 604.357 131.487C598.834 131.487 594.037 130.36 589.965 128.107C585.893 125.853 582.462 122.699 579.673 118.642C576.94 114.53 574.736 109.77 573.063 104.361C571.389 98.9532 570.106 93.1507 569.214 86.9538V82.3061C570.106 75.6585 571.389 69.5743 573.063 64.0534C574.736 58.4762 576.94 53.6595 579.673 49.6034C582.462 45.4909 585.865 42.3079 589.881 40.0545C593.953 37.8011 598.723 36.6744 604.189 36.6744C609.935 36.6744 614.983 37.7729 619.334 39.97C623.741 42.1671 627.423 45.3219 630.379 49.4344C633.392 53.5468 635.651 58.448 637.157 64.1379C638.719 69.8278 639.5 76.1374 639.5 83.0666ZM615.318 84.8412V83.0666C615.318 79.1795 614.983 75.6022 614.314 72.3347C613.7 69.0109 612.696 66.1096 611.302 63.6309C609.963 61.1521 608.178 59.2367 605.947 57.8847C603.771 56.4763 601.121 55.7721 597.998 55.7721C594.706 55.7721 591.889 56.3073 589.547 57.3777C587.259 58.448 585.391 59.9972 583.94 62.0253C582.49 64.0534 581.402 66.4758 580.677 69.2926C579.952 72.1094 579.506 75.2923 579.338 78.8415V90.5874C579.617 94.7562 580.398 98.5025 581.681 101.826C582.964 105.094 584.945 107.685 587.622 109.601C590.3 111.516 593.814 112.474 598.165 112.474C601.345 112.474 604.022 111.77 606.198 110.361C608.373 108.896 610.13 106.897 611.469 104.361C612.864 101.826 613.84 98.8969 614.398 95.5731C615.011 92.2493 615.318 88.672 615.318 84.8412Z" fill="white"/>
<path d="M675.154 38.3644V129.797H650.972V38.3644H675.154ZM649.466 14.5345C649.466 10.9854 650.693 8.05597 653.148 5.74622C655.602 3.43646 658.894 2.28159 663.021 2.28159C667.094 2.28159 670.357 3.43646 672.811 5.74622C675.321 8.05597 676.577 10.9854 676.577 14.5345C676.577 18.0837 675.321 21.0131 672.811 23.3229C670.357 25.6326 667.094 26.7875 663.021 26.7875C658.894 26.7875 655.602 25.6326 653.148 23.3229C650.693 21.0131 649.466 18.0837 649.466 14.5345Z" fill="white"/>
<path d="M731.978 131.487C724.949 131.487 718.646 130.36 713.068 128.107C707.489 125.797 702.748 122.614 698.843 118.558C694.994 114.502 692.038 109.798 689.974 104.446C687.91 99.0377 686.878 93.2915 686.878 87.2073V83.8271C686.878 76.8979 687.854 70.5602 689.806 64.8139C691.759 59.0677 694.548 54.082 698.174 49.8569C701.855 45.6317 706.318 42.3924 711.561 40.139C716.805 37.8293 722.718 36.6744 729.3 36.6744C735.715 36.6744 741.405 37.7448 746.37 39.8855C751.334 42.0262 755.49 45.0684 758.837 49.0118C762.24 52.9553 764.806 57.6875 766.535 63.2084C768.264 68.6729 769.129 74.7571 769.129 81.4611V91.6014H697.17V75.3768H745.449V73.5178C745.449 70.1376 744.836 67.1237 743.609 64.4759C742.437 61.7718 740.652 59.6311 738.253 58.0537C735.855 56.4763 732.787 55.6876 729.049 55.6876C725.87 55.6876 723.136 56.3918 720.849 57.8002C718.562 59.2086 716.693 61.1803 715.243 63.7154C713.849 66.2505 712.789 69.2363 712.064 72.6727C711.394 76.0529 711.059 79.771 711.059 83.8271V87.2073C711.059 90.8691 711.561 94.2492 712.566 97.3477C713.625 100.446 715.104 103.122 717 105.375C718.953 107.629 721.296 109.375 724.029 110.615C726.818 111.854 729.97 112.474 733.484 112.474C737.835 112.474 741.879 111.629 745.617 109.939C749.41 108.192 752.673 105.573 755.406 102.08L767.121 114.924C765.224 117.685 762.63 120.333 759.339 122.868C756.104 125.403 752.199 127.487 747.625 129.121C743.051 130.698 737.835 131.487 731.978 131.487Z" fill="white"/>
<path d="M801.687 57.8847V129.797H777.589V38.3644H800.181L801.687 57.8847ZM798.173 80.8695H791.647C791.647 74.1093 792.511 68.0251 794.24 62.6168C795.97 57.1523 798.396 52.5046 801.52 48.6738C804.644 44.7867 808.353 41.8291 812.649 39.801C817 37.7166 821.853 36.6744 827.208 36.6744C831.447 36.6744 835.324 37.2941 838.839 38.5334C842.353 39.7728 845.365 41.7446 847.875 44.4487C850.441 47.1528 852.394 50.7301 853.732 55.1806C855.127 59.6311 855.824 65.0674 855.824 71.4897V129.797H831.559V71.4052C831.559 67.349 831.001 64.1942 829.885 61.9408C828.77 59.6874 827.124 58.11 824.949 57.2086C822.829 56.2509 820.207 55.7721 817.083 55.7721C813.848 55.7721 811.031 56.4199 808.632 57.7157C806.289 59.0114 804.337 60.8141 802.775 63.1239C801.269 65.3773 800.125 68.0251 799.345 71.0672C798.564 74.1093 798.173 77.3767 798.173 80.8695Z" fill="white"/>
<path d="M906.791 112.474C909.747 112.474 912.369 111.91 914.656 110.784C916.943 109.601 918.728 107.967 920.011 105.882C921.35 103.742 922.047 101.235 922.103 98.3617H944.779C944.723 104.784 943.022 110.502 939.675 115.516C936.328 120.473 931.837 124.389 926.203 127.262C920.569 130.079 914.266 131.487 907.293 131.487C900.264 131.487 894.128 130.304 888.885 127.938C883.697 125.572 879.374 122.304 875.915 118.135C872.457 113.91 869.863 109.009 868.134 103.432C866.404 97.7983 865.54 91.7704 865.54 85.3482V82.8976C865.54 76.419 866.404 70.3911 868.134 64.8139C869.863 59.1804 872.457 54.2792 875.915 50.1104C879.374 45.8852 883.697 42.5896 888.885 40.2235C894.072 37.8574 900.153 36.6744 907.126 36.6744C914.545 36.6744 921.043 38.1109 926.622 40.984C932.256 43.8571 936.662 47.9696 939.842 53.3215C943.077 58.617 944.723 64.8984 944.779 72.1657H922.103C922.047 69.1236 921.406 66.3632 920.179 63.8844C919.007 61.4056 917.278 59.4339 914.991 57.9692C912.76 56.4481 909.998 55.6876 906.707 55.6876C903.193 55.6876 900.32 56.4481 898.089 57.9692C895.858 59.4339 894.128 61.462 892.901 64.0534C891.674 66.5885 890.809 69.4898 890.307 72.7572C889.861 75.9684 889.638 79.3485 889.638 82.8976V85.3482C889.638 88.8973 889.861 92.3056 890.307 95.5731C890.753 98.8405 891.59 101.742 892.817 104.277C894.1 106.812 895.858 108.812 898.089 110.277C900.32 111.741 903.221 112.474 906.791 112.474Z" fill="white"/>
<path d="M995.662 131.487C988.633 131.487 982.33 130.36 976.751 128.107C971.173 125.797 966.432 122.614 962.527 118.558C958.678 114.502 955.721 109.798 953.658 104.446C951.594 99.0377 950.562 93.2915 950.562 87.2073V83.8271C950.562 76.8979 951.538 70.5602 953.49 64.8139C955.443 59.0677 958.232 54.082 961.858 49.8569C965.539 45.6317 970.002 42.3924 975.245 40.139C980.489 37.8293 986.402 36.6744 992.984 36.6744C999.399 36.6744 1005.09 37.7448 1010.05 39.8855C1015.02 42.0262 1019.17 45.0684 1022.52 49.0118C1025.92 52.9553 1028.49 57.6875 1030.22 63.2084C1031.95 68.6729 1032.81 74.7571 1032.81 81.4611V91.6014H960.853V75.3768H1009.13V73.5178C1009.13 70.1376 1008.52 67.1237 1007.29 64.4759C1006.12 61.7718 1004.34 59.6311 1001.94 58.0537C999.539 56.4763 996.471 55.6876 992.733 55.6876C989.554 55.6876 986.82 56.3918 984.533 57.8002C982.246 59.2086 980.377 61.1803 978.927 63.7154C977.532 66.2505 976.473 69.2363 975.747 72.6727C975.078 76.0529 974.743 79.771 974.743 83.8271V87.2073C974.743 90.8691 975.245 94.2492 976.249 97.3477C977.309 100.446 978.788 103.122 980.684 105.375C982.637 107.629 984.979 109.375 987.713 110.615C990.502 111.854 993.654 112.474 997.168 112.474C1001.52 112.474 1005.56 111.629 1009.3 109.939C1013.09 108.192 1016.36 105.573 1019.09 102.08L1030.8 114.924C1028.91 117.685 1026.31 120.333 1023.02 122.868C1019.79 125.403 1015.88 127.487 1011.31 129.121C1006.73 130.698 1001.52 131.487 995.662 131.487Z" fill="white"/>
<path d="M1159.51 110.023V129.797H1098.18V110.023H1159.51ZM1106.3 6.76025V129.797H1081.19V6.76025H1106.3Z" fill="white"/>
<path d="M1216.5 109.178V68.4476C1216.5 65.5181 1216.03 63.0112 1215.08 60.9268C1214.13 58.786 1212.66 57.1241 1210.65 55.9411C1208.7 54.7581 1206.16 54.1665 1203.03 54.1665C1200.36 54.1665 1198.04 54.6454 1196.09 55.6031C1194.14 56.5045 1192.63 57.8283 1191.57 59.5747C1190.51 61.2648 1189.98 63.2647 1189.98 65.5745H1165.88C1165.88 61.6873 1166.77 57.9973 1168.56 54.5045C1170.34 51.0117 1172.94 47.9415 1176.34 45.2937C1179.74 42.5896 1183.79 40.477 1188.47 38.956C1193.22 37.4349 1198.51 36.6744 1204.37 36.6744C1211.4 36.6744 1217.65 37.8574 1223.11 40.2235C1228.58 42.5896 1232.88 46.1387 1236 50.8709C1239.18 55.6031 1240.77 61.5183 1240.77 68.6166V107.742C1240.77 112.755 1241.08 116.868 1241.69 120.079C1242.3 123.234 1243.2 125.994 1244.37 128.36V129.797H1220.02C1218.85 127.318 1217.95 124.22 1217.34 120.502C1216.78 116.727 1216.5 112.953 1216.5 109.178ZM1219.68 74.1093L1219.85 87.8833H1206.38C1203.2 87.8833 1200.44 88.2495 1198.1 88.9818C1195.75 89.7142 1193.83 90.7564 1192.32 92.1085C1190.82 93.4042 1189.7 94.9252 1188.98 96.6716C1188.31 98.418 1187.97 100.333 1187.97 102.418C1187.97 104.502 1188.45 106.389 1189.39 108.08C1190.34 109.713 1191.71 111.009 1193.49 111.967C1195.28 112.868 1197.37 113.319 1199.77 113.319C1203.4 113.319 1206.55 112.586 1209.22 111.122C1211.9 109.657 1213.97 107.854 1215.42 105.713C1216.92 103.573 1217.7 101.545 1217.76 99.6292L1224.12 109.939C1223.23 112.248 1222 114.643 1220.44 117.121C1218.93 119.6 1217.01 121.938 1214.66 124.135C1212.32 126.276 1209.5 128.05 1206.21 129.459C1202.92 130.811 1199.02 131.487 1194.5 131.487C1188.75 131.487 1183.54 130.332 1178.85 128.022C1174.22 125.656 1170.54 122.417 1167.81 118.304C1165.13 114.136 1163.79 109.403 1163.79 104.108C1163.79 99.3194 1164.68 95.0661 1166.47 91.3479C1168.25 87.6298 1170.87 84.5032 1174.33 81.9681C1177.85 79.3766 1182.23 77.4331 1187.47 76.1374C1192.71 74.7853 1198.79 74.1093 1205.71 74.1093H1219.68Z" fill="white"/>
<path d="M1254.59 0H1278.68V108.84L1276.26 129.797H1254.59V0ZM1336 83.1511V84.9257C1336 91.7423 1335.27 97.9955 1333.82 103.685C1332.43 109.375 1330.25 114.305 1327.3 118.473C1324.34 122.586 1320.66 125.797 1316.25 128.107C1311.9 130.36 1306.77 131.487 1300.86 131.487C1295.33 131.487 1290.54 130.36 1286.47 128.107C1282.45 125.853 1279.07 122.67 1276.34 118.558C1273.61 114.445 1271.4 109.629 1269.73 104.108C1268.06 98.587 1266.8 92.5591 1265.97 86.0242V82.1371C1266.8 75.6022 1268.06 69.5743 1269.73 64.0534C1271.4 58.5325 1273.61 53.7159 1276.34 49.6034C1279.07 45.4909 1282.45 42.3079 1286.47 40.0545C1290.48 37.8011 1295.22 36.6744 1300.69 36.6744C1306.66 36.6744 1311.85 37.8293 1316.25 40.139C1320.72 42.3924 1324.4 45.6035 1327.3 49.7724C1330.25 53.8849 1332.43 58.786 1333.82 64.4759C1335.27 70.1095 1336 76.3345 1336 83.1511ZM1311.9 84.9257V83.1511C1311.9 79.433 1311.62 75.9402 1311.07 72.6727C1310.56 69.3489 1309.67 66.4477 1308.39 63.9689C1307.1 61.4338 1305.35 59.4339 1303.12 57.9692C1300.94 56.5045 1298.12 55.7721 1294.67 55.7721C1291.37 55.7721 1288.58 56.3354 1286.3 57.4622C1284.01 58.5889 1282.11 60.1663 1280.61 62.1943C1279.16 64.2224 1278.07 66.6448 1277.34 69.4616C1276.62 72.222 1276.17 75.2642 1276.01 78.588V89.6579C1276.17 94.1084 1276.9 98.0518 1278.18 101.488C1279.52 104.868 1281.53 107.544 1284.21 109.516C1286.94 111.432 1290.48 112.389 1294.83 112.389C1298.24 112.389 1301.05 111.713 1303.28 110.361C1305.51 109.009 1307.24 107.094 1308.47 104.615C1309.75 102.136 1310.65 99.2349 1311.15 95.9111C1311.65 92.531 1311.9 88.8692 1311.9 84.9257Z" fill="white"/>
</svg>
