<svg width="1216" height="269" viewBox="0 0 1216 269" fill="none" xmlns="http://www.w3.org/2000/svg">
<path d="M10.656 103.968V1.72777H32.544V103.968H10.656ZM43.6602 103.968V26.7838H63.1003L63.9643 49.3918L61.2283 48.6718C61.9963 42.9118 63.5323 38.3038 65.8363 34.8478C68.2363 31.3918 71.2123 28.8958 74.7643 27.3598C78.3163 25.8238 82.2043 25.0558 86.4283 25.0558C91.9963 25.0558 96.7003 26.2558 100.54 28.6558C104.476 31.0558 107.452 34.4638 109.468 38.8798C111.58 43.1998 112.636 48.3358 112.636 54.2878V103.968H91.0363V61.4878C91.0363 57.3598 90.7003 53.8558 90.0283 50.9758C89.3563 48.0958 88.1563 45.9358 86.4283 44.4958C84.7003 42.9598 82.3003 42.1918 79.2283 42.1918C74.7163 42.1918 71.2603 43.8718 68.8603 47.2318C66.4603 50.4958 65.2603 55.2478 65.2603 61.4878V103.968H43.6602ZM152.839 105.696C144.871 105.696 138.199 104.592 132.823 102.384C127.447 100.08 123.319 97.0078 120.439 93.1678C117.655 89.2318 116.071 84.7198 115.687 79.6318L137.575 78.9118C138.247 82.5598 139.783 85.3918 142.183 87.4078C144.583 89.4238 148.135 90.4318 152.839 90.4318C156.679 90.4318 159.655 89.8078 161.767 88.5598C163.975 87.3118 165.079 85.3918 165.079 82.7998C165.079 81.1678 164.695 79.8238 163.927 78.7678C163.159 77.6158 161.623 76.6558 159.319 75.8878C157.111 75.0238 153.799 74.2558 149.383 73.5838C141.223 72.1438 134.839 70.4638 130.231 68.5438C125.623 66.6238 122.359 64.1278 120.439 61.0558C118.519 57.9838 117.559 54.2398 117.559 49.8238C117.559 42.4318 120.391 36.4798 126.055 31.9678C131.815 27.3598 140.407 25.0558 151.831 25.0558C159.127 25.0558 165.223 26.2078 170.119 28.5118C175.111 30.8158 178.951 33.9838 181.639 38.0158C184.423 41.9518 186.151 46.4638 186.823 51.5518L165.079 52.4158C164.791 49.9198 164.023 47.8078 162.775 46.0798C161.623 44.2558 160.135 42.8638 158.311 41.9038C156.487 40.8478 154.279 40.3198 151.687 40.3198C147.847 40.3198 144.871 41.1358 142.759 42.7678C140.743 44.3038 139.735 46.3678 139.735 48.9598C139.735 50.8798 140.167 52.4638 141.031 53.7118C141.991 54.8638 143.527 55.8238 145.639 56.5918C147.751 57.3598 150.583 57.9838 154.135 58.4638C162.391 59.6158 168.919 61.2478 173.719 63.3598C178.615 65.3758 182.119 67.9198 184.231 70.9918C186.343 74.0638 187.399 77.8558 187.399 82.3678C187.399 87.3598 185.959 91.5838 183.079 95.0398C180.199 98.4958 176.167 101.136 170.983 102.96C165.895 104.784 159.847 105.696 152.839 105.696ZM190.723 103.968V26.7838H212.323V103.968H190.723ZM190.291 17.2798V-0.000235558H212.611V17.2798H190.291ZM254.377 127.296C246.985 127.296 240.793 126.384 235.801 124.56C230.905 122.736 226.969 120.192 223.993 116.928C221.113 113.664 219.097 109.92 217.945 105.696L240.121 104.112C240.889 106.608 242.329 108.576 244.441 110.016C246.649 111.456 249.961 112.176 254.377 112.176C259.561 112.176 263.497 110.928 266.185 108.432C268.969 106.032 270.361 102.144 270.361 96.7678V88.5598C268.537 92.1118 265.609 94.9918 261.577 97.1998C257.545 99.3118 253.033 100.368 248.041 100.368C241.705 100.368 236.089 98.8318 231.193 95.7598C226.297 92.5918 222.457 88.2238 219.673 82.6558C216.985 76.9918 215.641 70.3678 215.641 62.7838C215.641 55.3918 216.985 48.8638 219.673 43.1998C222.457 37.5358 226.249 33.1198 231.049 29.9518C235.945 26.6878 241.513 25.0558 247.753 25.0558C253.417 25.0558 258.169 26.3038 262.009 28.7998C265.945 31.2958 268.921 34.6078 270.937 38.7358V26.7838H292.105V96.3358C292.105 103.248 290.521 108.96 287.353 113.472C284.185 118.08 279.769 121.536 274.105 123.84C268.441 126.144 261.865 127.296 254.377 127.296ZM254.233 84.3838C259.225 84.3838 263.161 82.4638 266.041 78.6238C269.017 74.7838 270.505 69.4558 270.505 62.6398C270.505 58.1278 269.833 54.2398 268.489 50.9758C267.241 47.7118 265.369 45.2158 262.873 43.4878C260.473 41.7598 257.593 40.8958 254.233 40.8958C249.049 40.8958 245.017 42.8638 242.137 46.7998C239.257 50.7358 237.817 56.0158 237.817 62.6398C237.817 69.3598 239.305 74.6878 242.281 78.6238C245.257 82.4638 249.241 84.3838 254.233 84.3838ZM299.957 103.968V1.72777H321.557V44.7838H318.677C319.445 40.2718 320.933 36.5758 323.141 33.6958C325.445 30.8158 328.277 28.6558 331.637 27.2158C335.093 25.7758 338.837 25.0558 342.869 25.0558C348.629 25.0558 353.429 26.3038 357.269 28.7998C361.109 31.2958 363.989 34.7518 365.909 39.1678C367.925 43.5838 368.933 48.6238 368.933 54.2878V103.968H347.333V59.4718C347.333 53.7118 346.421 49.3918 344.597 46.5118C342.869 43.6318 339.893 42.1918 335.669 42.1918C331.253 42.1918 327.797 43.6798 325.301 46.6558C322.805 49.6318 321.557 54.0958 321.557 60.0478V103.968H299.957ZM404.894 103.968C396.926 103.968 391.07 102.144 387.326 98.4958C383.582 94.7518 381.71 88.8478 381.71 80.7838V8.63976H403.31V78.1918C403.31 81.9358 404.078 84.4798 405.614 85.8238C407.246 87.1678 409.646 87.8398 412.814 87.8398H423.614V103.968H404.894ZM369.326 42.9118V26.7838H423.614V42.9118H369.326Z" fill="#18181B"/>
<path d="M572.656 247.968V145.728H594.544V247.968H572.656ZM605.66 247.968V170.784H625.1L625.964 193.392L623.228 192.672C623.996 186.912 625.532 182.304 627.836 178.848C630.236 175.392 633.212 172.896 636.764 171.36C640.316 169.824 644.204 169.056 648.428 169.056C653.996 169.056 658.7 170.256 662.54 172.656C666.476 175.056 669.452 178.464 671.468 182.88C673.58 187.2 674.636 192.336 674.636 198.288V247.968H653.036V205.488C653.036 201.36 652.7 197.856 652.028 194.976C651.356 192.096 650.156 189.936 648.428 188.496C646.7 186.96 644.3 186.192 641.228 186.192C636.716 186.192 633.26 187.872 630.86 191.232C628.46 194.496 627.26 199.248 627.26 205.488V247.968H605.66ZM681.441 247.968V170.784H700.882L701.746 193.392L699.01 192.672C699.778 186.912 701.314 182.304 703.618 178.848C706.018 175.392 708.994 172.896 712.546 171.36C716.098 169.824 719.986 169.056 724.21 169.056C729.778 169.056 734.482 170.256 738.322 172.656C742.258 175.056 745.234 178.464 747.25 182.88C749.362 187.2 750.418 192.336 750.418 198.288V247.968H728.818V205.488C728.818 201.36 728.482 197.856 727.81 194.976C727.138 192.096 725.938 189.936 724.21 188.496C722.482 186.96 720.082 186.192 717.01 186.192C712.498 186.192 709.042 187.872 706.642 191.232C704.242 194.496 703.042 199.248 703.042 205.488V247.968H681.441ZM792.637 249.696C784.765 249.696 777.901 248.064 772.045 244.8C766.189 241.44 761.629 236.736 758.365 230.688C755.101 224.64 753.469 217.536 753.469 209.376C753.469 201.216 755.101 194.16 758.365 188.208C761.629 182.16 766.189 177.456 772.045 174.096C777.901 170.736 784.765 169.056 792.637 169.056C800.509 169.056 807.373 170.736 813.229 174.096C819.085 177.456 823.645 182.16 826.909 188.208C830.173 194.16 831.805 201.216 831.805 209.376C831.805 217.536 830.173 224.64 826.909 230.688C823.645 236.736 819.085 241.44 813.229 244.8C807.373 248.064 800.509 249.696 792.637 249.696ZM792.637 233.136C798.013 233.136 802.189 231.072 805.165 226.944C808.141 222.72 809.629 216.864 809.629 209.376C809.629 201.888 808.141 196.08 805.165 191.952C802.189 187.728 798.013 185.616 792.637 185.616C787.261 185.616 783.085 187.728 780.109 191.952C777.133 196.08 775.645 201.888 775.645 209.376C775.645 216.864 777.133 222.72 780.109 226.944C783.085 231.072 787.261 233.136 792.637 233.136ZM854.186 247.968L825.962 170.784H848.57L866.858 226.224L885.002 170.784H907.609L879.242 247.968H854.186ZM928.869 249.696C920.901 249.696 914.373 247.872 909.285 244.224C904.293 240.48 901.797 235.296 901.797 228.672C901.797 221.856 903.909 216.624 908.133 212.976C912.453 209.232 918.789 206.496 927.141 204.768L952.053 199.872C952.053 194.88 950.901 191.136 948.597 188.64C946.389 186.048 943.173 184.752 938.949 184.752C934.821 184.752 931.605 185.712 929.301 187.632C926.997 189.456 925.509 192.192 924.837 195.84L903.093 194.832C904.533 186.384 908.325 180 914.469 175.68C920.709 171.264 928.869 169.056 938.949 169.056C950.469 169.056 959.109 171.792 964.869 177.264C970.725 182.736 973.653 190.752 973.653 201.312V227.664C973.653 229.872 973.989 231.36 974.661 232.128C975.429 232.8 976.533 233.136 977.973 233.136H980.133V247.968C979.461 248.16 978.357 248.352 976.821 248.544C975.381 248.736 973.941 248.832 972.501 248.832C969.429 248.832 966.549 248.304 963.861 247.248C961.269 246.192 959.157 244.416 957.525 241.92C955.893 239.328 955.077 235.68 955.077 230.976L956.949 232.416C955.989 235.872 954.261 238.896 951.765 241.488C949.365 244.08 946.197 246.096 942.261 247.536C938.421 248.976 933.957 249.696 928.869 249.696ZM934.053 234.864C937.605 234.864 940.725 234.192 943.413 232.848C946.101 231.408 948.213 229.344 949.749 226.656C951.285 223.968 952.053 220.8 952.053 217.152V213.408L934.485 217.152C931.029 217.824 928.389 218.976 926.565 220.608C924.837 222.144 923.973 224.16 923.973 226.656C923.973 229.248 924.837 231.264 926.565 232.704C928.293 234.144 930.789 234.864 934.053 234.864ZM1009.22 247.968C1001.25 247.968 995.398 246.144 991.654 242.496C987.91 238.752 986.038 232.848 986.038 224.784V152.64H1007.64V222.192C1007.64 225.936 1008.41 228.48 1009.94 229.824C1011.57 231.168 1013.97 231.84 1017.14 231.84H1027.94V247.968H1009.22ZM973.654 186.912V170.784H1027.94V186.912H973.654ZM1030.68 247.968V170.784H1052.28V247.968H1030.68ZM1030.24 161.28V144H1052.56V161.28H1030.24ZM1094.76 249.696C1086.89 249.696 1080.03 248.064 1074.17 244.8C1068.31 241.44 1063.75 236.736 1060.49 230.688C1057.23 224.64 1055.59 217.536 1055.59 209.376C1055.59 201.216 1057.23 194.16 1060.49 188.208C1063.75 182.16 1068.31 177.456 1074.17 174.096C1080.03 170.736 1086.89 169.056 1094.76 169.056C1102.63 169.056 1109.5 170.736 1115.35 174.096C1121.21 177.456 1125.77 182.16 1129.03 188.208C1132.3 194.16 1133.93 201.216 1133.93 209.376C1133.93 217.536 1132.3 224.64 1129.03 230.688C1125.77 236.736 1121.21 241.44 1115.35 244.8C1109.5 248.064 1102.63 249.696 1094.76 249.696ZM1094.76 233.136C1100.14 233.136 1104.31 231.072 1107.29 226.944C1110.27 222.72 1111.75 216.864 1111.75 209.376C1111.75 201.888 1110.27 196.08 1107.29 191.952C1104.31 187.728 1100.14 185.616 1094.76 185.616C1089.39 185.616 1085.21 187.728 1082.23 191.952C1079.26 196.08 1077.77 201.888 1077.77 209.376C1077.77 216.864 1079.26 222.72 1082.23 226.944C1085.21 231.072 1089.39 233.136 1094.76 233.136ZM1137.38 247.968V170.784H1156.82L1157.68 193.392L1154.95 192.672C1155.72 186.912 1157.25 182.304 1159.56 178.848C1161.96 175.392 1164.93 172.896 1168.48 171.36C1172.04 169.824 1175.92 169.056 1180.15 169.056C1185.72 169.056 1190.42 170.256 1194.26 172.656C1198.2 175.056 1201.17 178.464 1203.19 182.88C1205.3 187.2 1206.36 192.336 1206.36 198.288V247.968H1184.76V205.488C1184.76 201.36 1184.42 197.856 1183.75 194.976C1183.08 192.096 1181.88 189.936 1180.15 188.496C1178.42 186.96 1176.02 186.192 1172.95 186.192C1168.44 186.192 1164.98 187.872 1162.58 191.232C1160.18 194.496 1158.98 199.248 1158.98 205.488V247.968H1137.38Z" fill="#18181B"/>
<path d="M574.504 262.565C576.168 264.112 577 265.421 577 266.492C577 267.92 576.109 268.634 574.326 268.634C573.613 268.634 572.84 268.456 572.008 268.099C571.176 267.861 569.156 266.849 565.947 265.064C562.738 263.279 558.698 260.779 553.825 257.566C548.952 254.353 543.426 250.366 537.246 245.605C531.185 240.844 524.886 235.31 518.349 229.003C510.862 234.953 502.721 239.773 493.926 243.463C485.132 247.152 476.04 248.997 466.651 248.997C458.213 248.997 450.428 247.331 443.297 243.998C436.167 240.666 429.987 236.203 424.757 230.609C419.528 225.016 415.428 218.529 412.457 211.15C409.486 203.771 408 195.976 408 187.764C408 179.79 409.129 172.649 411.387 166.341C413.645 159.915 416.676 154.083 420.479 148.846C424.401 143.61 428.917 138.849 434.027 134.565C439.257 130.28 444.724 126.174 450.428 122.247C447.814 113.678 445.912 105.228 444.724 96.8965C443.654 88.5655 443.119 80.1155 443.119 71.5464C443.119 64.0485 443.832 56.7886 445.258 49.7668C446.803 42.6259 449.299 36.3181 452.746 30.8435C456.192 25.3688 460.709 20.9653 466.294 17.6329C471.999 14.3005 479.07 12.6343 487.508 12.6343C493.926 12.6343 499.631 13.6459 504.622 15.6691C509.733 17.5734 514.011 20.3107 517.458 23.8811C520.904 27.4516 523.519 31.7361 525.302 36.7347C527.203 41.6143 528.154 46.9699 528.154 52.8016C528.154 60.8946 526.728 68.0355 523.876 74.2242C521.142 80.294 517.458 85.9472 512.823 91.1838C508.307 96.3014 503.077 101.181 497.135 105.823C491.193 110.464 485.132 115.284 478.951 120.283C483.943 133.255 490.004 146.287 497.135 159.379C504.385 172.352 512.11 184.967 520.31 197.226C522.212 193.298 523.697 189.014 524.767 184.372C525.836 179.612 526.371 174.434 526.371 168.841C526.371 163.604 525.836 159.082 524.767 155.273C523.816 151.346 522.746 148.073 521.558 145.454C520.488 142.717 519.419 140.515 518.349 138.849C517.398 137.183 516.923 135.933 516.923 135.1C516.923 133.672 517.458 132.779 518.527 132.422C519.716 131.946 521.083 131.708 522.628 131.708C523.46 131.708 524.826 131.887 526.728 132.244C528.629 132.482 530.769 133.017 533.146 133.85C535.522 134.684 538.018 135.933 540.633 137.599C543.248 139.147 545.565 141.229 547.585 143.848C549.725 146.466 551.448 149.739 552.755 153.666C554.181 157.594 554.895 162.235 554.895 167.591C554.895 174.732 552.874 182.527 548.833 190.977C544.911 199.427 539.563 207.52 532.789 215.256C539.92 224.897 547.051 233.763 554.181 241.856C561.312 249.83 568.086 256.733 574.504 262.565ZM468.434 231.145C474.019 231.145 480.14 229.955 486.795 227.574C493.57 225.194 499.928 221.386 505.87 216.149C502.543 212.459 499.215 208.592 495.887 204.545C492.678 200.499 489.529 196.214 486.439 191.691C479.902 182.408 474.198 173.542 469.325 165.092C464.571 156.642 460.471 148.37 457.024 140.277C456.311 141.11 455.598 141.884 454.885 142.598C454.172 143.312 453.518 144.086 452.924 144.919C447.219 151.703 443.119 158.784 440.623 166.163C438.128 173.423 436.88 180.623 436.88 187.764C436.88 193.715 437.593 199.368 439.019 204.724C440.445 209.96 442.466 214.542 445.08 218.47C447.814 222.397 451.141 225.492 455.063 227.753C458.985 230.014 463.442 231.145 468.434 231.145ZM465.759 62.4418C465.759 68.9876 466.413 75.8904 467.72 83.1503C469.147 90.2912 471.108 97.7296 473.603 105.466C477.406 102.014 481.031 98.2057 484.478 94.0401C487.924 89.8746 490.955 85.5901 493.57 81.1866C496.184 76.664 498.264 72.082 499.809 67.4404C501.354 62.7989 502.127 58.3358 502.127 54.0513C502.127 49.8858 501.473 46.1963 500.166 42.983C498.977 39.7696 497.432 37.0322 495.531 34.771C493.748 32.5097 491.787 30.8435 489.648 29.7724C487.508 28.5822 485.547 27.9871 483.765 27.9871C482.101 27.9871 480.259 28.6417 478.238 29.9509C476.218 31.141 474.257 33.1048 472.355 35.8421C470.454 38.5794 468.85 42.1499 467.542 46.5534C466.354 50.8379 465.759 56.134 465.759 62.4418Z" fill="#F2500D"/>
</svg>
