<svg width="187" height="84" viewBox="0 0 187 84" fill="none" xmlns="http://www.w3.org/2000/svg">
<path d="M4.90546e-05 35.2617V6.86172H5.20005V35.2617H4.90546e-05ZM10.5141 35.2617V13.9017H15.1541L15.3541 19.9017L14.7541 19.6617C14.9674 18.1684 15.4074 16.9684 16.0741 16.0617C16.7408 15.1551 17.5541 14.4884 18.5141 14.0617C19.4741 13.6351 20.5274 13.4217 21.6741 13.4217C23.2474 13.4217 24.5674 13.7684 25.6341 14.4617C26.7274 15.1551 27.5541 16.1151 28.1141 17.3417C28.6741 18.5417 28.9541 19.9417 28.9541 21.5417V35.2617H23.8341V23.1817C23.8341 21.9817 23.7141 20.9684 23.4741 20.1417C23.2341 19.3151 22.8341 18.6884 22.2741 18.2617C21.7408 17.8084 21.0208 17.5817 20.1141 17.5817C18.7541 17.5817 17.6608 18.0617 16.8341 19.0217C16.0341 19.9817 15.6341 21.3684 15.6341 23.1817V35.2617H10.5141ZM41.7097 35.7417C39.6031 35.7417 37.8297 35.4351 36.3897 34.8217C34.9764 34.2084 33.8831 33.3551 33.1097 32.2617C32.3364 31.1684 31.8964 29.9284 31.7897 28.5417L37.0297 28.3017C37.2164 29.4217 37.6831 30.2884 38.4297 30.9017C39.1764 31.5151 40.2831 31.8217 41.7497 31.8217C42.9497 31.8217 43.8831 31.6351 44.5497 31.2617C45.2431 30.8617 45.5897 30.2484 45.5897 29.4217C45.5897 28.9417 45.4697 28.5417 45.2297 28.2217C44.9897 27.9017 44.5364 27.6217 43.8697 27.3817C43.2031 27.1417 42.2164 26.9017 40.9097 26.6617C38.7231 26.2884 37.0031 25.8351 35.7497 25.3017C34.4964 24.7417 33.6031 24.0484 33.0697 23.2217C32.5631 22.3951 32.3097 21.3684 32.3097 20.1417C32.3097 18.1417 33.0697 16.5284 34.5897 15.3017C36.1364 14.0484 38.3897 13.4217 41.3497 13.4217C43.2697 13.4217 44.8831 13.7417 46.1897 14.3817C47.4964 14.9951 48.5097 15.8484 49.2297 16.9417C49.9764 18.0084 50.4431 19.2351 50.6297 20.6217L45.4697 20.8617C45.3364 20.1417 45.0964 19.5151 44.7497 18.9817C44.4031 18.4484 43.9364 18.0484 43.3497 17.7817C42.7631 17.4884 42.0697 17.3417 41.2697 17.3417C40.0697 17.3417 39.1631 17.5817 38.5497 18.0617C37.9364 18.5417 37.6297 19.1817 37.6297 19.9817C37.6297 20.5417 37.7631 21.0084 38.0297 21.3817C38.3231 21.7551 38.7897 22.0617 39.4297 22.3017C40.0697 22.5151 40.9231 22.7151 41.9897 22.9017C44.2297 23.2484 45.9897 23.7017 47.2697 24.2617C48.5764 24.7951 49.4964 25.4884 50.0297 26.3417C50.5897 27.1684 50.8697 28.1684 50.8697 29.3417C50.8697 30.7017 50.4831 31.8617 49.7097 32.8217C48.9631 33.7817 47.8964 34.5151 46.5097 35.0217C45.1497 35.5017 43.5497 35.7417 41.7097 35.7417ZM53.8657 35.2617V13.9017H58.9857V35.2617H53.8657ZM53.7857 11.0617V6.50172H59.1057V11.0617H53.7857ZM72.3372 41.7417C70.4706 41.7417 68.8706 41.4884 67.5372 40.9817C66.2039 40.4751 65.1239 39.7551 64.2972 38.8217C63.4972 37.9151 62.9372 36.8617 62.6172 35.6617L67.8972 35.3017C68.1639 36.1017 68.6172 36.7284 69.2572 37.1817C69.9239 37.6351 70.9506 37.8617 72.3372 37.8617C73.9106 37.8617 75.1239 37.5017 75.9772 36.7817C76.8306 36.0884 77.2572 34.9951 77.2572 33.5017V30.7817C76.7506 31.8217 75.9372 32.6617 74.8172 33.3017C73.6972 33.9151 72.4439 34.2217 71.0572 34.2217C69.2972 34.2217 67.7239 33.7951 66.3372 32.9417C64.9772 32.0617 63.9106 30.8484 63.1372 29.3017C62.3639 27.7284 61.9772 25.9151 61.9772 23.8617C61.9772 21.8084 62.3506 20.0084 63.0972 18.4617C63.8706 16.8884 64.9372 15.6617 66.2972 14.7817C67.6572 13.8751 69.2172 13.4217 70.9772 13.4217C72.5239 13.4217 73.8572 13.7684 74.9772 14.4617C76.0972 15.1551 76.9106 16.0751 77.4172 17.2217V13.9017H82.4172V33.3817C82.4172 35.1951 81.9906 36.7284 81.1372 37.9817C80.3106 39.2351 79.1372 40.1684 77.6172 40.7817C76.1239 41.4217 74.3639 41.7417 72.3372 41.7417ZM72.2572 30.2217C73.7772 30.2217 74.9906 29.6617 75.8972 28.5417C76.8039 27.3951 77.2706 25.8217 77.2972 23.8217C77.3239 22.4884 77.1239 21.3551 76.6972 20.4217C76.2972 19.4617 75.7106 18.7284 74.9372 18.2217C74.1906 17.6884 73.2972 17.4217 72.2572 17.4217C70.6839 17.4217 69.4572 18.0084 68.5772 19.1817C67.7239 20.3284 67.2972 21.8751 67.2972 23.8217C67.2972 25.7684 67.7372 27.3284 68.6172 28.5017C69.5239 29.6484 70.7372 30.2217 72.2572 30.2217ZM86.6313 35.2617V6.86172H91.7513V18.7817H91.1113C91.3246 17.5551 91.7513 16.5551 92.3913 15.7817C93.0313 14.9817 93.818 14.3951 94.7513 14.0217C95.6846 13.6217 96.7113 13.4217 97.8313 13.4217C99.4046 13.4217 100.725 13.7684 101.791 14.4617C102.885 15.1284 103.698 16.0751 104.231 17.3017C104.791 18.5284 105.071 19.9417 105.071 21.5417V35.2617H99.9513V22.7817C99.9513 21.0484 99.658 19.7551 99.0713 18.9017C98.4846 18.0217 97.5646 17.5817 96.3113 17.5817C94.9246 17.5817 93.818 18.0351 92.9913 18.9417C92.1646 19.8484 91.7513 21.1684 91.7513 22.9017V35.2617H86.6313ZM116.73 35.2617C114.597 35.2617 113.024 34.7684 112.01 33.7817C111.024 32.7951 110.53 31.2484 110.53 29.1417V8.90172H115.65V28.6617C115.65 29.6484 115.864 30.3417 116.29 30.7417C116.717 31.1151 117.384 31.3017 118.29 31.3017H121.29V35.2617H116.73ZM107.17 17.8617V13.9017H121.29V17.8617H107.17Z" fill="#18181B"/>
<path d="M159.775 41.0156C160.048 41.2695 160.185 41.4844 160.185 41.6602C160.185 41.8945 160.038 42.0117 159.745 42.0117C159.628 42.0117 159.501 41.9824 159.365 41.9238C159.228 41.8848 158.896 41.7188 158.368 41.4258C157.841 41.1328 157.177 40.7227 156.376 40.1953C155.575 39.668 154.667 39.0137 153.652 38.2324C152.656 37.4512 151.62 36.543 150.546 35.5078C149.316 36.4844 147.978 37.2754 146.532 37.8809C145.087 38.4863 143.593 38.7891 142.05 38.7891C140.663 38.7891 139.384 38.5156 138.212 37.9688C137.04 37.4219 136.025 36.6895 135.165 35.7715C134.306 34.8535 133.632 33.7891 133.144 32.5781C132.656 31.3672 132.411 30.0879 132.411 28.7402C132.411 27.4316 132.597 26.2598 132.968 25.2246C133.339 24.1699 133.837 23.2129 134.462 22.3535C135.107 21.4941 135.849 20.7129 136.689 20.0098C137.548 19.3066 138.447 18.6328 139.384 17.9883C138.954 16.582 138.642 15.1953 138.447 13.8281C138.271 12.4609 138.183 11.0742 138.183 9.66797C138.183 8.4375 138.3 7.24609 138.534 6.09375C138.788 4.92188 139.198 3.88672 139.765 2.98828C140.331 2.08984 141.073 1.36719 141.991 0.820312C142.929 0.273437 144.091 0 145.478 0C146.532 0 147.47 0.166016 148.29 0.498047C149.13 0.810547 149.833 1.25977 150.4 1.8457C150.966 2.43164 151.396 3.13477 151.689 3.95508C152.001 4.75586 152.157 5.63477 152.157 6.5918C152.157 7.91992 151.923 9.0918 151.454 10.1074C151.005 11.1035 150.4 12.0312 149.638 12.8906C148.896 13.7305 148.036 14.5312 147.06 15.293C146.083 16.0547 145.087 16.8457 144.072 17.666C144.892 19.7949 145.888 21.9336 147.06 24.082C148.251 26.2109 149.521 28.2812 150.868 30.293C151.181 29.6484 151.425 28.9453 151.601 28.1836C151.777 27.4023 151.865 26.5527 151.865 25.6348C151.865 24.7754 151.777 24.0332 151.601 23.4082C151.445 22.7637 151.269 22.2266 151.073 21.7969C150.898 21.3477 150.722 20.9863 150.546 20.7129C150.39 20.4395 150.312 20.2344 150.312 20.0977C150.312 19.8633 150.4 19.7168 150.575 19.6582C150.771 19.5801 150.995 19.541 151.249 19.541C151.386 19.541 151.611 19.5703 151.923 19.6289C152.236 19.668 152.587 19.7559 152.978 19.8926C153.368 20.0293 153.779 20.2344 154.208 20.5078C154.638 20.7617 155.019 21.1035 155.351 21.5332C155.702 21.9629 155.986 22.5 156.2 23.1445C156.435 23.7891 156.552 24.5508 156.552 25.4297C156.552 26.6016 156.22 27.8809 155.556 29.2676C154.911 30.6543 154.032 31.9824 152.919 33.252C154.091 34.834 155.263 36.2891 156.435 37.6172C157.607 38.9258 158.72 40.0586 159.775 41.0156ZM142.343 35.8594C143.261 35.8594 144.267 35.6641 145.361 35.2734C146.474 34.8828 147.519 34.2578 148.495 33.3984C147.948 32.793 147.402 32.1582 146.855 31.4941C146.327 30.8301 145.81 30.127 145.302 29.3848C144.228 27.8613 143.29 26.4062 142.49 25.0195C141.708 23.6328 141.034 22.2754 140.468 20.9473C140.351 21.084 140.234 21.2109 140.116 21.3281C139.999 21.4453 139.892 21.5723 139.794 21.709C138.857 22.8223 138.183 23.9844 137.773 25.1953C137.363 26.3867 137.157 27.5684 137.157 28.7402C137.157 29.7168 137.275 30.6445 137.509 31.5234C137.743 32.3828 138.075 33.1348 138.505 33.7793C138.954 34.4238 139.501 34.9316 140.146 35.3027C140.79 35.6738 141.523 35.8594 142.343 35.8594ZM141.904 8.17383C141.904 9.24805 142.011 10.3809 142.226 11.5723C142.46 12.7441 142.782 13.9648 143.193 15.2344C143.818 14.668 144.413 14.043 144.98 13.3594C145.546 12.6758 146.044 11.9727 146.474 11.25C146.904 10.5078 147.245 9.75586 147.499 8.99414C147.753 8.23242 147.88 7.5 147.88 6.79688C147.88 6.11328 147.773 5.50781 147.558 4.98047C147.363 4.45312 147.109 4.00391 146.796 3.63281C146.503 3.26172 146.181 2.98828 145.829 2.8125C145.478 2.61719 145.156 2.51953 144.863 2.51953C144.589 2.51953 144.286 2.62695 143.954 2.8418C143.622 3.03711 143.3 3.35938 142.988 3.80859C142.675 4.25781 142.411 4.84375 142.197 5.56641C142.001 6.26953 141.904 7.13867 141.904 8.17383Z" fill="#F2500D"/>
<path d="M4.90546e-05 83.2617V54.8617H5.20005V83.2617H4.90546e-05ZM10.5141 83.2617V61.9017H15.1541L15.3541 67.9017L14.7541 67.6617C14.9674 66.1684 15.4074 64.9684 16.0741 64.0617C16.7408 63.1551 17.5541 62.4884 18.5141 62.0617C19.4741 61.6351 20.5274 61.4217 21.6741 61.4217C23.2474 61.4217 24.5674 61.7684 25.6341 62.4617C26.7274 63.1551 27.5541 64.1151 28.1141 65.3417C28.6741 66.5417 28.9541 67.9417 28.9541 69.5417V83.2617H23.8341V71.1817C23.8341 69.9817 23.7141 68.9684 23.4741 68.1417C23.2341 67.3151 22.8341 66.6884 22.2741 66.2617C21.7408 65.8084 21.0208 65.5817 20.1141 65.5817C18.7541 65.5817 17.6608 66.0617 16.8341 67.0217C16.0341 67.9817 15.6341 69.3684 15.6341 71.1817V83.2617H10.5141ZM32.8735 83.2617V61.9017H37.5135L37.7135 67.9017L37.1135 67.6617C37.3268 66.1684 37.7668 64.9684 38.4335 64.0617C39.1002 63.1551 39.9135 62.4884 40.8735 62.0617C41.8335 61.6351 42.8868 61.4217 44.0335 61.4217C45.6068 61.4217 46.9268 61.7684 47.9935 62.4617C49.0868 63.1551 49.9135 64.1151 50.4735 65.3417C51.0335 66.5417 51.3135 67.9417 51.3135 69.5417V83.2617H46.1935V71.1817C46.1935 69.9817 46.0735 68.9684 45.8335 68.1417C45.5935 67.3151 45.1935 66.6884 44.6335 66.2617C44.1002 65.8084 43.3802 65.5817 42.4735 65.5817C41.1135 65.5817 40.0202 66.0617 39.1935 67.0217C38.3935 67.9817 37.9935 69.3684 37.9935 71.1817V83.2617H32.8735ZM64.6691 83.7417C62.5624 83.7417 60.7091 83.2884 59.1091 82.3817C57.5358 81.4484 56.3091 80.1417 55.4291 78.4617C54.5758 76.7817 54.1491 74.8217 54.1491 72.5817C54.1491 70.3151 54.5758 68.3551 55.4291 66.7017C56.3091 65.0217 57.5358 63.7284 59.1091 62.8217C60.7091 61.8884 62.5624 61.4217 64.6691 61.4217C66.7758 61.4217 68.6158 61.8884 70.1891 62.8217C71.7624 63.7284 72.9758 65.0217 73.8291 66.7017C74.7091 68.3551 75.1491 70.3151 75.1491 72.5817C75.1491 74.8217 74.7091 76.7817 73.8291 78.4617C72.9758 80.1417 71.7624 81.4484 70.1891 82.3817C68.6158 83.2884 66.7758 83.7417 64.6691 83.7417ZM64.6691 79.5817C66.3224 79.5817 67.5891 78.9684 68.4691 77.7417C69.3758 76.5151 69.8291 74.7951 69.8291 72.5817C69.8291 70.3951 69.3758 68.6884 68.4691 67.4617C67.5891 66.2084 66.3224 65.5817 64.6691 65.5817C63.0158 65.5817 61.7358 66.2084 60.8291 67.4617C59.9224 68.6884 59.4691 70.3951 59.4691 72.5817C59.4691 74.7951 59.9224 76.5151 60.8291 77.7417C61.7358 78.9684 63.0158 79.5817 64.6691 79.5817ZM83.1979 83.2617L75.3979 61.9017H80.7979L86.2379 78.1017L91.6779 61.9017H97.0779L89.2779 83.2617H83.1979ZM104.823 83.7417C102.583 83.7417 100.783 83.2351 99.4235 82.2217C98.0635 81.1817 97.3835 79.7417 97.3835 77.9017C97.3835 76.0617 97.9568 74.6217 99.1035 73.5817C100.25 72.5417 101.997 71.7951 104.343 71.3417L111.423 69.9417C111.423 68.4217 111.077 67.2884 110.383 66.5417C109.69 65.7684 108.663 65.3817 107.303 65.3817C106.077 65.3817 105.103 65.6751 104.383 66.2617C103.69 66.8217 103.21 67.6351 102.943 68.7017L97.7435 68.4617C98.1702 66.1951 99.2102 64.4617 100.863 63.2617C102.517 62.0351 104.663 61.4217 107.303 61.4217C110.343 61.4217 112.637 62.1951 114.183 63.7417C115.757 65.2617 116.543 67.4484 116.543 70.3017V78.0617C116.543 78.6217 116.637 79.0084 116.823 79.2217C117.037 79.4351 117.343 79.5417 117.743 79.5417H118.423V83.2617C118.263 83.3151 117.997 83.3551 117.623 83.3817C117.277 83.4084 116.917 83.4217 116.543 83.4217C115.663 83.4217 114.877 83.2884 114.183 83.0217C113.49 82.7284 112.957 82.2351 112.583 81.5417C112.21 80.8217 112.023 79.8484 112.023 78.6217L112.463 78.9417C112.25 79.8751 111.783 80.7151 111.063 81.4617C110.37 82.1817 109.49 82.7417 108.423 83.1417C107.357 83.5417 106.157 83.7417 104.823 83.7417ZM105.863 80.0217C107.01 80.0217 107.997 79.7951 108.823 79.3417C109.65 78.8884 110.29 78.2617 110.743 77.4617C111.197 76.6617 111.423 75.7151 111.423 74.6217V73.4217L105.903 74.5417C104.757 74.7817 103.93 75.1417 103.423 75.6217C102.943 76.0751 102.703 76.6751 102.703 77.4217C102.703 78.2484 102.97 78.8884 103.503 79.3417C104.063 79.7951 104.85 80.0217 105.863 80.0217ZM128.215 83.2617C126.081 83.2617 124.508 82.7684 123.495 81.7817C122.508 80.7951 122.015 79.2484 122.015 77.1417V56.9017H127.135V76.6617C127.135 77.6484 127.348 78.3417 127.775 78.7417C128.201 79.1151 128.868 79.3017 129.775 79.3017H132.775V83.2617H128.215ZM118.655 65.8617V61.9017H132.775V65.8617H118.655ZM135.53 83.2617V61.9017H140.65V83.2617H135.53ZM135.45 59.0617V54.5017H140.77V59.0617H135.45ZM154.161 83.7417C152.055 83.7417 150.201 83.2884 148.601 82.3817C147.028 81.4484 145.801 80.1417 144.921 78.4617C144.068 76.7817 143.641 74.8217 143.641 72.5817C143.641 70.3151 144.068 68.3551 144.921 66.7017C145.801 65.0217 147.028 63.7284 148.601 62.8217C150.201 61.8884 152.055 61.4217 154.161 61.4217C156.268 61.4217 158.108 61.8884 159.681 62.8217C161.255 63.7284 162.468 65.0217 163.321 66.7017C164.201 68.3551 164.641 70.3151 164.641 72.5817C164.641 74.8217 164.201 76.7817 163.321 78.4617C162.468 80.1417 161.255 81.4484 159.681 82.3817C158.108 83.2884 156.268 83.7417 154.161 83.7417ZM154.161 79.5817C155.815 79.5817 157.081 78.9684 157.961 77.7417C158.868 76.5151 159.321 74.7951 159.321 72.5817C159.321 70.3951 158.868 68.6884 157.961 67.4617C157.081 66.2084 155.815 65.5817 154.161 65.5817C152.508 65.5817 151.228 66.2084 150.321 67.4617C149.415 68.6884 148.961 70.3951 148.961 72.5817C148.961 74.7951 149.415 76.5151 150.321 77.7417C151.228 78.9684 152.508 79.5817 154.161 79.5817ZM167.592 83.2617V61.9017H172.232L172.432 67.9017L171.832 67.6617C172.046 66.1684 172.486 64.9684 173.152 64.0617C173.819 63.1551 174.632 62.4884 175.592 62.0617C176.552 61.6351 177.606 61.4217 178.752 61.4217C180.326 61.4217 181.646 61.7684 182.712 62.4617C183.806 63.1551 184.632 64.1151 185.192 65.3417C185.752 66.5417 186.032 67.9417 186.032 69.5417V83.2617H180.912V71.1817C180.912 69.9817 180.792 68.9684 180.552 68.1417C180.312 67.3151 179.912 66.6884 179.352 66.2617C178.819 65.8084 178.099 65.5817 177.192 65.5817C175.832 65.5817 174.739 66.0617 173.912 67.0217C173.112 67.9817 172.712 69.3684 172.712 71.1817V83.2617H167.592Z" fill="#18181B"/>
</svg>
