<svg width="112" height="120" viewBox="0 0 112 120" fill="none" xmlns="http://www.w3.org/2000/svg">
<path d="M19.0765 90.2306C18.9106 90.2306 18.8277 90.1476 18.6618 90.0647C12.2762 84.8401 8.46146 76.7958 8.46146 68.5857C8.46146 68.254 8.71019 67.9223 9.12484 67.9223C9.45656 67.9223 9.78832 68.1711 9.78832 68.5857C9.78832 76.4641 13.3543 84.0937 19.4911 89.0695C19.7399 89.3183 19.8228 89.6501 19.574 89.9818C19.4082 90.1476 19.2423 90.2306 19.0765 90.2306Z" fill="#666666"/>
<path d="M19.0763 90.5624C18.9933 90.5624 18.9934 90.5624 18.9104 90.5624C16.5884 90.0649 14.2663 89.3185 12.0272 88.4892C11.6955 88.3233 11.5296 87.9916 11.6954 87.6599C11.8613 87.3282 12.193 87.1623 12.5247 87.3282C14.4321 88.0745 16.4225 88.6551 18.4129 89.1526C18.247 87.2453 17.8323 85.4208 17.2518 83.6792C17.1689 83.3475 17.3348 83.0158 17.6665 82.8499C17.9982 82.767 18.3299 82.9329 18.4958 83.2646C19.2422 85.4208 19.6568 87.6599 19.8226 89.899C19.8226 90.0649 19.7397 90.3137 19.5738 90.3966C19.408 90.4795 19.2421 90.5624 19.0763 90.5624Z" fill="#666666"/>
<path d="M83.0991 102.918C82.8503 102.918 82.6015 102.752 82.5186 102.503C82.3527 102.172 82.5186 101.84 82.8503 101.674C90.397 98.274 96.2021 91.2249 98.0266 83.1807C98.1095 82.849 98.4412 82.6002 98.7729 82.6831C99.1046 82.766 99.3535 83.0977 99.2705 83.4295C97.3631 91.8884 91.3092 99.2692 83.4308 102.835C83.2649 102.918 83.1821 102.918 83.0991 102.918Z" fill="#666666"/>
<path d="M99.768 89.3169C99.4363 89.3169 99.1045 89.0682 99.1045 88.6535C99.1045 87.1608 98.8558 85.5851 98.4412 84.1753C97.1972 85.1704 95.9532 86.0827 94.5434 86.912C94.2117 87.0778 93.8799 86.9949 93.7141 86.6632C93.5482 86.3315 93.6312 85.9997 93.9629 85.8339C95.5386 84.9217 97.0313 83.8435 98.3582 82.6825C98.524 82.5167 98.7729 82.5167 98.9387 82.5167C99.1046 82.5996 99.2705 82.6825 99.3534 82.9313C100.017 84.8387 100.348 86.7461 100.348 88.7365C100.348 89.0682 100.1 89.3169 99.768 89.3169Z" fill="#666666"/>
<path d="M54.7367 13.6855C54.5708 13.6855 54.322 13.6025 54.2391 13.4367C54.0732 13.1879 54.1561 12.7732 54.4049 12.5245C60.8735 8.12915 69.6641 7.54863 76.7132 10.9488C77.0449 11.1146 77.1279 11.4464 77.0449 11.7781C76.8791 12.1098 76.5473 12.1927 76.2156 12.1098C69.5812 8.87552 61.2882 9.45604 55.1513 13.6026C54.9855 13.6026 54.9025 13.6855 54.7367 13.6855Z" fill="#666666"/>
<path d="M60.1275 14.0171C58.2201 13.8513 56.3127 13.7683 54.4053 13.8513C54.1565 13.8513 53.9077 13.6854 53.8248 13.5195C53.7419 13.2707 53.7418 13.022 53.9077 12.8561L57.3078 8.29493C57.5566 8.04613 57.8884 7.96321 58.2201 8.12907C58.4689 8.37786 58.5518 8.70958 58.386 9.04131L55.7322 12.6073H55.8151C57.3079 12.6073 58.8006 12.6902 60.2104 12.7732C60.5421 12.7732 60.791 13.1049 60.791 13.4366C60.708 13.7683 60.4592 14.0171 60.1275 14.0171Z" fill="#666666"/>
<path d="M81.0256 5.72318C80.9427 5.72318 80.7768 5.72317 80.6939 5.64024C76.2156 2.90354 70.8251 1.32787 65.6005 1.32787C65.2688 1.32787 64.9371 1.07907 64.9371 0.664422C64.9371 0.3327 65.1859 0.000976562 65.6005 0.000976562C71.1568 0.000976562 76.6302 1.57666 81.3573 4.47922C81.689 4.64508 81.772 5.05973 81.5232 5.30852C81.4403 5.64024 81.1915 5.72318 81.0256 5.72318Z" fill="#666666"/>
<path d="M87.2455 111.957C86.9968 111.957 86.8308 111.874 86.665 111.626C86.4991 111.294 86.5821 110.962 86.9138 110.796C91.475 108.308 95.4557 104.494 98.0265 100.015C98.1924 99.6836 98.607 99.6007 98.8558 99.7666C99.1875 99.9324 99.2704 100.347 99.1045 100.596C96.3678 105.406 92.3872 109.304 87.4943 111.874C87.4943 111.957 87.3285 111.957 87.2455 111.957Z" fill="#666666"/>
<path d="M5.64201 83.3463C5.47615 83.3463 5.22738 83.2633 5.14445 83.0975C1.74431 78.7022 -0.0802227 73.2288 0.00270758 67.6724C0.00270758 67.3407 0.251539 67.009 0.666191 67.009C0.997912 67.009 1.32957 67.2578 1.32957 67.6724C1.24664 72.98 2.9882 78.1217 6.22248 82.3511C6.47127 82.5999 6.38836 83.0145 6.13957 83.2633C5.97371 83.2633 5.80787 83.3463 5.64201 83.3463Z" fill="#666666"/>
<path d="M6.7207 14.0986C7.63294 27.7821 7.79882 41.4656 7.4671 55.1491C11.3648 54.0711 15.4284 53.6564 19.492 53.9881C19.9896 53.9881 20.5701 54.071 20.9848 54.4857C21.3994 54.9003 21.4823 55.6467 21.2335 56.2272C21.0676 56.8077 20.653 57.3053 20.3213 57.8029C19.8237 58.5493 19.4091 59.4615 19.3262 60.3737C19.2432 62.3641 20.9018 64.1056 22.8921 64.769C24.7995 65.3496 26.8728 65.1008 29.029 64.4373C30.6047 63.8568 31.5998 61.9494 31.0193 60.2908C30.7705 59.5444 30.273 58.9639 30.0242 58.2176C29.6095 57.0565 29.7753 55.5638 30.7705 54.7345C31.6827 53.9881 32.9267 53.9881 34.0877 53.9881C37.9854 54.071 41.8832 54.071 45.615 54.071C45.4492 48.6806 45.5321 43.2901 45.8639 37.7338C45.0346 38.4801 43.8735 38.8119 42.7125 38.7289C41.5515 38.7289 40.4734 38.3143 39.5612 37.7338C38.8977 37.3191 38.3172 36.8215 37.9026 36.1581C37.4879 35.3288 37.4879 34.3336 37.5708 33.4214C37.7367 32.2604 38.0684 31.0164 38.9806 30.27C39.3953 29.9383 39.8929 29.6895 40.3905 29.4407C41.3027 29.0261 42.2979 28.6944 43.376 28.6944C44.3711 28.6944 45.4492 29.192 46.0297 30.1871C45.7809 26.3723 45.615 22.5575 46.0297 18.7427C46.1955 17.3329 46.4443 15.8402 46.0297 14.5133C45.0345 14.1816 43.9565 14.1816 42.9613 14.2645C32.2633 14.7621 21.4823 15.0109 10.7843 14.3474C9.37449 14.3474 7.96466 14.1816 6.7207 14.0986Z" fill="#F2500D"/>
<path d="M47.6048 79.7791C48.6829 78.6181 48.0194 76.7936 48.1023 75.2179C48.2682 71.7349 52.6636 69.4128 55.732 70.9885C58.8004 72.5642 59.7126 77.1254 57.6393 79.945C57.2247 80.5255 56.6442 81.2719 57.0588 81.9353C57.2247 82.1841 57.5564 82.35 57.8881 82.4329C62.781 84.1744 67.6739 85.833 72.4839 87.5746C70.9911 91.8869 69.3325 96.1164 67.4251 100.263C65.5177 98.2726 62.2835 97.4433 59.8785 98.936C57.5564 100.346 57.1418 104.326 59.4638 105.819C61.0395 106.814 63.1127 106.4 65.0201 106.483C64.4396 111.376 62.9468 116.186 60.1272 120C55.9807 118.176 51.8342 116.434 47.6877 114.61C47.4389 114.527 47.1901 114.361 46.9413 114.195C46.4437 113.698 46.5266 112.785 46.9413 112.205C47.3559 111.624 47.9365 111.127 48.3512 110.629C49.761 108.805 49.1804 105.819 47.3559 104.492C45.4485 103.083 42.629 103.414 40.8874 104.907C39.1459 106.4 38.4824 109.054 39.0629 111.293C34.5847 108.722 29.6918 106.897 23.8867 105.985C27.121 95.8676 30.3553 85.6672 33.5066 75.4668C38.3166 76.7936 43.0436 78.2864 47.6048 79.7791Z" fill="#666666"/>
<path d="M93.6311 78.0374C92.3871 78.0374 91.1432 77.6228 90.3968 76.4618C89.8163 75.6325 89.8163 74.6373 89.8163 73.7251C89.8163 73.3104 89.8163 72.8958 89.7334 72.4811C89.6505 71.9006 89.1528 71.2371 88.6553 70.9884C88.4065 70.9054 88.2407 70.9884 88.0748 70.9884C87.9919 70.9884 87.9918 71.0713 87.9089 71.0713C85.0063 72.0665 82.0208 73.2275 79.2012 74.3885C77.4597 75.0519 75.7182 75.7154 73.9766 76.3788C73.8108 76.4618 73.6448 76.4618 73.479 76.3788C73.3131 76.2959 73.2303 76.13 73.1473 75.9642C71.8204 71.2371 69.913 66.9248 67.4251 63.11C67.2593 62.8612 67.2593 62.6124 67.4251 62.4465C67.591 62.1978 67.8397 62.1148 68.0885 62.1978C69.3325 62.3636 70.4935 62.3636 71.6545 62.0319C72.5668 61.7831 73.1473 61.4514 73.479 60.9538C73.8107 60.5392 73.9766 59.9586 73.9766 59.3781C73.9766 57.6366 72.6497 55.978 70.9082 55.3975C69.2495 54.8999 67.1763 55.3975 65.9323 56.7244C65.7665 56.8902 65.6007 56.9731 65.3519 56.8902C65.186 56.8902 64.9372 56.7243 64.8543 56.5585C64.2738 55.3145 63.7762 54.0706 63.1957 52.8266C61.7859 49.5923 60.4589 46.5239 58.9662 43.5384C58.8003 43.2067 58.9662 42.875 59.215 42.7091C64.1908 39.9724 69.4154 37.5675 74.7229 35.4942C74.8059 35.4942 74.8059 35.4113 74.8059 35.4113C74.8889 35.1625 74.723 34.499 74.3913 34.0844C74.1425 33.7527 73.8937 33.5039 73.562 33.1721C73.3132 32.9234 72.9815 32.5916 72.7327 32.2599C71.3229 30.5184 71.2399 27.8646 72.4009 25.7914C73.479 23.9669 75.6352 22.64 77.9572 22.3912C79.0353 22.3083 79.9476 22.3912 80.694 22.8059C81.7721 23.3864 82.5184 24.5474 82.7672 25.8743C82.9331 27.1182 82.7672 28.2793 82.5184 29.3574V29.5232C82.4355 30.0208 82.2696 30.5184 82.3526 31.016C82.3526 31.3477 82.5184 31.6794 82.7672 31.8453C86.665 30.3525 91.8066 28.3622 97.0312 26.4548C97.1971 26.3719 97.3629 26.3719 97.5288 26.4548C97.6946 26.5377 97.7776 26.6207 97.8605 26.7865C101.675 37.8992 106.236 48.4313 111.212 58.2171C111.378 58.5488 111.295 58.8805 110.964 59.0464C106.485 61.5343 101.758 63.8564 97.1141 66.0955C96.6165 66.3443 96.119 66.5931 96.0361 66.9248C95.8702 67.4224 96.2019 68.0029 96.6166 68.4175C96.8653 68.5834 97.1142 68.8322 97.3629 68.998C97.7776 69.3298 98.1922 69.5786 98.6069 69.9932C99.685 71.1542 99.8508 73.1446 99.1045 74.6373C98.441 75.9642 97.1142 77.0423 95.5385 77.5399C94.8751 77.8716 94.2116 78.0374 93.6311 78.0374ZM88.3235 69.7444C88.5723 69.7444 88.8211 69.8273 89.0699 69.9103C89.9821 70.242 90.7285 71.3201 90.8943 72.3152C90.9773 72.8128 90.9774 73.2275 90.9774 73.6421C90.9774 74.4714 91.0603 75.2178 91.392 75.7154C92.0554 76.7935 93.714 76.8764 94.9579 76.4618C96.2848 76.0471 97.28 75.2178 97.7776 74.1397C98.3581 73.0616 98.1922 71.6518 97.4459 70.8225C97.1971 70.4908 96.7825 70.242 96.4507 69.9932C96.2019 69.8273 95.8702 69.5785 95.6214 69.3298C94.8751 68.6663 94.2116 67.5882 94.6262 66.4272C94.9579 65.6808 95.6214 65.2662 96.3678 64.9345C100.763 62.7783 105.324 60.6221 109.554 58.2171C104.744 48.6801 100.348 38.4797 96.6166 27.7817C91.4749 29.6061 86.4991 31.5135 82.6843 33.0063C82.5185 33.0892 82.4355 33.0892 82.2697 33.0063C81.4404 32.7575 80.9427 32.0111 80.7769 31.016C80.694 30.3525 80.8599 29.6891 81.0257 29.1086V28.9427C81.2745 28.0305 81.4403 26.9524 81.2744 25.9572C81.1086 24.962 80.611 24.1327 79.8647 23.801C79.3671 23.5522 78.7036 23.4693 77.8743 23.5522C75.9669 23.7181 74.2254 24.7962 73.3132 26.2889C72.4009 27.8646 72.4838 30.0208 73.479 31.3477C73.7278 31.5965 73.9766 31.8453 74.2254 32.177C74.5571 32.5087 74.8889 32.8404 75.2206 33.2551C75.6352 33.9185 76.1328 34.9137 75.884 35.743C75.7181 36.1576 75.4693 36.4894 75.0547 36.6552C69.9959 38.5626 65.0201 40.8847 60.2101 43.5384C61.6199 46.3581 62.8639 49.2606 64.1908 52.329C64.6055 53.3242 65.0201 54.3194 65.5177 55.3145C67.0934 54.0706 69.2496 53.6559 71.0741 54.2365C73.3132 54.8999 74.9718 57.139 74.9718 59.3781C74.9718 60.0416 74.8888 60.9538 74.2254 61.7831C73.7278 62.4466 72.8985 62.9441 71.7375 63.2758C70.8252 63.5246 69.913 63.6905 68.9178 63.6076C70.9911 67.0077 72.7326 70.8225 73.8936 75.052C75.4693 74.4715 76.962 73.8909 78.4548 73.3104C81.2744 72.2323 84.2599 71.0713 87.1625 69.9932C87.743 69.8273 87.9918 69.7444 88.3235 69.7444Z" fill="#F2500D"/>
</svg>
