<svg width="48" height="48" viewBox="0 0 48 48" fill="none" xmlns="http://www.w3.org/2000/svg">
<rect width="48" height="48" rx="24" fill="#F4F4F5"/>
<g clip-path="url(#clip0_40000977_638)">
<path d="M26.5774 28.193C26.797 28.2516 27.03 28.2337 27.238 28.1422C27.446 28.0506 27.6167 27.891 27.7218 27.6895L27.9932 27.1712C28.1349 26.895 28.3389 26.6554 28.5892 26.4717C28.8395 26.2879 29.1291 26.165 29.4351 26.1125L32.392 25.6059C32.9148 25.5163 33.4518 25.6381 33.8849 25.9444C34.3179 26.2507 34.6115 26.7166 34.7011 27.2394L35.2077 30.1963C35.2973 30.7191 35.1755 31.2561 34.8692 31.6891C34.5628 32.1221 34.097 32.4157 33.5742 32.5053C28.8689 33.3116 24.036 32.2156 20.1387 29.4585C16.2415 26.7014 13.5991 22.5091 12.7928 17.8038C12.7033 17.281 12.825 16.744 13.1314 16.311C13.4377 15.8779 13.9035 15.5843 14.4263 15.4948L17.3833 14.9881C17.9061 14.8985 18.4431 15.0203 18.8761 15.3266C19.3091 15.633 19.6027 16.0988 19.6923 16.6216L20.199 19.5785C20.2514 19.8845 20.2319 20.1986 20.1419 20.4957C20.0519 20.7929 19.894 21.0651 19.6807 21.2906L19.2787 21.7156C19.1214 21.8848 19.0275 22.1032 19.013 22.3337C18.9985 22.5642 19.0643 22.7927 19.1991 22.9802C21.0149 25.4854 23.6095 27.3185 26.5774 28.193Z" fill="#09090B"/>
</g>
<defs>
<clipPath id="clip0_40000977_638">
<rect width="24" height="24" fill="white" transform="translate(10.146 14.199) rotate(-9.72296)"/>
</clipPath>
</defs>
</svg>
