<svg width="121" height="121" viewBox="0 0 121 121" fill="none" xmlns="http://www.w3.org/2000/svg">
<rect x="-0.75" y="0.75" width="22.5459" height="38.5764" transform="matrix(-1 0 0 1 22.5459 80.1489)" stroke="#666666" stroke-width="1.5"/>
<rect x="-0.75" y="0.75" width="23.3474" height="70.6376" transform="matrix(-1 0 0 1 86.668 48.0869)" stroke="#666666" stroke-width="1.5"/>
<rect x="-0.75" y="0.75" width="23.3474" height="54.607" transform="matrix(-1 0 0 1 54.6074 64.1182)" stroke="#666666" stroke-width="1.5"/>
<rect x="-0.75" y="0.75" width="23.3474" height="86.6682" transform="matrix(-1 0 0 1 119.131 32.0566)" stroke="#666666" stroke-width="1.5"/>
<path d="M115.729 10.5605L112.459 7.00977C72.3517 38.309 21.3876 62.2102 0.583984 70.3633L0 68.8711C20.7023 60.7577 71.4444 36.9577 111.371 5.82617L107.22 1.31738L119.72 0.0556641L115.729 10.5605Z" fill="#F2500D"/>
</svg>
