<svg width="1336" height="127" viewBox="0 0 1336 127" fill="none" xmlns="http://www.w3.org/2000/svg">
<path d="M52.7131 74.339C52.7131 72.6656 52.4557 71.1638 51.9408 69.8336C51.4688 68.4606 50.5677 67.2162 49.2375 66.1006C47.9074 64.9421 46.0409 63.805 43.638 62.6894C41.2351 61.5737 38.1242 60.4152 34.3054 59.2138C30.0574 57.8407 26.024 56.296 22.2052 54.5797C18.4292 52.8633 15.0823 50.8681 12.1646 48.5939C9.2897 46.2768 7.01554 43.5951 5.34211 40.5486C3.71159 37.5021 2.89633 33.9621 2.89633 29.9287C2.89633 26.024 3.7545 22.4841 5.47084 19.3088C7.18718 16.0907 9.59006 13.3446 12.6795 11.0704C15.7689 8.75334 19.4161 6.97264 23.6211 5.72829C27.8691 4.48394 32.5247 3.86177 37.5879 3.86177C44.4961 3.86177 50.5248 5.10611 55.6738 7.59481C60.8228 10.0835 64.8133 13.4947 67.6453 17.8285C70.5202 22.1623 71.9576 27.1182 71.9576 32.6963H52.7775C52.7775 29.9502 52.1982 27.5473 51.0397 25.4877C49.9241 23.3851 48.2077 21.7332 45.8907 20.5317C43.6165 19.3303 40.7416 18.7296 37.2661 18.7296C33.9192 18.7296 31.1301 19.2445 28.8989 20.2743C26.6677 21.2612 24.9942 22.6128 23.8786 24.3291C22.763 26.0026 22.2052 27.8905 22.2052 29.9931C22.2052 31.5807 22.5913 33.0181 23.3637 34.3054C24.179 35.5926 25.3804 36.7941 26.968 37.9097C28.5556 39.0253 30.508 40.0766 32.825 41.0635C35.1421 42.0504 37.8239 43.0158 40.8704 43.9598C45.9765 45.5045 50.4604 47.2423 54.3222 49.1732C58.2269 51.1041 61.4879 53.2709 64.1053 55.6738C66.7228 58.0767 68.6966 60.8014 70.0267 63.8479C71.3569 66.8944 72.022 70.3485 72.022 74.2103C72.022 78.2866 71.2282 81.9338 69.6405 85.152C68.0529 88.3701 65.7573 91.0948 62.7537 93.326C59.7501 95.5573 56.1673 97.2522 52.0051 98.4107C47.843 99.5692 43.1874 100.149 38.0384 100.149C33.4043 100.149 28.8345 99.5478 24.3291 98.3464C19.8237 97.102 15.726 95.2355 12.0358 92.7468C8.38862 90.2581 5.47084 87.0829 3.2825 83.2211C1.09417 79.3593 0 74.7896 0 69.5118H19.3732C19.3732 72.4296 19.8237 74.8968 20.7248 76.9135C21.6259 78.9302 22.8917 80.5608 24.5222 81.8051C26.1957 83.0495 28.1694 83.9505 30.4436 84.5083C32.7607 85.0662 35.2923 85.3451 38.0384 85.3451C41.3853 85.3451 44.1314 84.8731 46.2768 83.9291C48.4652 82.9851 50.0743 81.6764 51.1041 80.003C52.1768 78.3295 52.7131 76.4415 52.7131 74.339Z" fill="#09090B"/>
<path d="M114.444 29.2207V42.3507H73.8956V29.2207H114.444ZM83.9362 12.0358H102.473V77.879C102.473 79.8957 102.73 81.4404 103.245 82.5131C103.803 83.5858 104.618 84.3367 105.691 84.7658C106.764 85.152 108.115 85.3451 109.746 85.3451C110.904 85.3451 111.934 85.3022 112.835 85.2163C113.779 85.0876 114.573 84.9589 115.217 84.8302L115.281 98.4751C113.693 98.99 111.977 99.3976 110.132 99.698C108.287 99.9983 106.249 100.149 104.017 100.149C99.9411 100.149 96.3797 99.4834 93.3332 98.1533C90.3296 96.7802 88.0125 94.5919 86.382 91.5883C84.7515 88.5847 83.9362 84.6371 83.9362 79.7455V12.0358Z" fill="#09090B"/>
<path d="M158.926 83.1567V52.1339C158.926 49.9026 158.561 47.9932 157.832 46.4056C157.102 44.7751 155.965 43.5092 154.421 42.6082C152.919 41.7071 150.967 41.2565 148.564 41.2565C146.504 41.2565 144.723 41.6213 143.222 42.3507C141.72 43.0373 140.561 44.0456 139.746 45.3758C138.931 46.663 138.523 48.1863 138.523 49.9455H119.987C119.987 46.9848 120.673 44.1743 122.046 41.514C123.419 38.8537 125.414 36.5152 128.032 34.4985C130.649 32.4389 133.76 30.8298 137.365 29.6712C141.012 28.5127 145.088 27.9335 149.593 27.9335C155 27.9335 159.806 28.8345 164.011 30.6367C168.216 32.4388 171.52 35.1421 173.923 38.7464C176.368 42.3507 177.591 46.8561 177.591 52.2626V82.0626C177.591 85.8814 177.827 89.0137 178.299 91.4595C178.771 93.8624 179.458 95.9649 180.359 97.7671V98.8613H161.629C160.728 96.9733 160.042 94.6133 159.57 91.7813C159.141 88.9065 158.926 86.0316 158.926 83.1567ZM161.372 56.4462L161.501 66.9373H151.138C148.692 66.9373 146.568 67.2162 144.766 67.774C142.964 68.3318 141.484 69.1256 140.325 70.1554C139.167 71.1423 138.309 72.3009 137.751 73.631C137.236 74.9612 136.978 76.4201 136.978 78.0077C136.978 79.5953 137.343 81.0328 138.072 82.32C138.802 83.5644 139.853 84.5513 141.226 85.2807C142.599 85.9672 144.208 86.3105 146.053 86.3105C148.843 86.3105 151.267 85.7527 153.326 84.6371C155.386 83.5215 156.974 82.1484 158.089 80.5179C159.248 78.8873 159.849 77.3426 159.891 75.8837L164.783 83.736C164.097 85.4952 163.153 87.3189 161.951 89.2068C160.793 91.0948 159.312 92.8755 157.51 94.5489C155.708 96.1795 153.541 97.5311 151.009 98.6038C148.478 99.6336 145.474 100.149 141.999 100.149C137.579 100.149 133.567 99.2689 129.963 97.5096C126.401 95.7075 123.569 93.2402 121.467 90.1079C119.407 86.9327 118.377 83.3284 118.377 79.295C118.377 75.6477 119.064 72.4081 120.437 69.5762C121.81 66.7442 123.827 64.3628 126.487 62.4319C129.19 60.4581 132.559 58.9778 136.592 57.9909C140.626 56.9611 145.303 56.4462 150.623 56.4462H161.372Z" fill="#09090B"/>
<path d="M207.849 91.009L226.321 29.2207H246.209L218.211 109.352C217.611 111.112 216.795 113 215.766 115.016C214.779 117.033 213.427 118.942 211.711 120.745C210.037 122.59 207.913 124.091 205.339 125.25C202.807 126.409 199.696 126.988 196.006 126.988C194.247 126.988 192.809 126.881 191.694 126.666C190.578 126.451 189.248 126.151 187.703 125.765V112.184C188.175 112.184 188.669 112.184 189.184 112.184C189.699 112.227 190.192 112.249 190.664 112.249C193.11 112.249 195.105 111.97 196.65 111.412C198.195 110.854 199.439 109.996 200.383 108.837C201.327 107.722 202.078 106.263 202.636 104.461L207.849 91.009ZM200.125 29.2207L215.251 79.6811L217.89 99.3118L205.274 100.663L180.237 29.2207H200.125Z" fill="#09090B"/>
<path d="M334.594 67.774H353.838C353.452 74.0816 351.714 79.6811 348.625 84.5727C345.578 89.4643 341.309 93.2831 335.816 96.0293C330.367 98.7754 323.802 100.149 316.121 100.149C310.114 100.149 304.729 99.1187 299.966 97.0591C295.204 94.9566 291.127 91.953 287.737 88.0483C284.391 84.1436 281.838 79.4237 280.078 73.8885C278.319 68.3533 277.439 62.153 277.439 55.2876V48.787C277.439 41.9216 278.34 35.7214 280.143 30.1862C281.988 24.608 284.605 19.8666 287.995 15.962C291.428 12.0573 295.525 9.0537 300.288 6.95118C305.051 4.84866 310.372 3.7974 316.25 3.7974C324.06 3.7974 330.646 5.21339 336.01 8.04535C341.416 10.8773 345.6 14.782 348.56 19.7594C351.564 24.7368 353.366 30.4007 353.967 36.7512H334.658C334.443 32.9752 333.693 29.7785 332.405 27.1611C331.118 24.5008 329.166 22.5055 326.548 21.1754C323.974 19.8023 320.541 19.1157 316.25 19.1157C313.032 19.1157 310.221 19.7165 307.819 20.9179C305.416 22.1193 303.399 23.943 301.769 26.3887C300.138 28.8345 298.915 31.9239 298.1 35.657C297.328 39.3471 296.941 43.6809 296.941 48.6583V55.2876C296.941 60.1363 297.306 64.4057 298.035 68.0958C298.765 71.7431 299.881 74.8325 301.382 77.3641C302.927 79.8528 304.901 81.7408 307.304 83.028C309.75 84.2724 312.689 84.8945 316.121 84.8945C320.155 84.8945 323.48 84.2509 326.098 82.9636C328.715 81.6764 330.71 79.767 332.083 77.2354C333.499 74.7038 334.336 71.55 334.594 67.774Z" fill="#09090B"/>
<path d="M358.737 64.749V63.3974C358.737 58.2912 359.466 53.5928 360.925 49.3019C362.384 44.9681 364.508 41.2136 367.297 38.0384C370.086 34.8632 373.519 32.3959 377.595 30.6367C381.671 28.8345 386.348 27.9335 391.626 27.9335C396.904 27.9335 401.602 28.8345 405.722 30.6367C409.841 32.3959 413.295 34.8632 416.084 38.0384C418.916 41.2136 421.061 44.9681 422.52 49.3019C423.979 53.5928 424.709 58.2912 424.709 63.3974V64.749C424.709 69.8122 423.979 74.5107 422.52 78.8444C421.061 83.1353 418.916 86.8898 416.084 90.1079C413.295 93.2831 409.862 95.7504 405.786 97.5096C401.71 99.2689 397.033 100.149 391.755 100.149C386.477 100.149 381.779 99.2689 377.659 97.5096C373.583 95.7504 370.129 93.2831 367.297 90.1079C364.508 86.8898 362.384 83.1353 360.925 78.8444C359.466 74.5107 358.737 69.8122 358.737 64.749ZM377.273 63.3974V64.749C377.273 67.6667 377.531 70.3914 378.046 72.923C378.56 75.4547 379.376 77.6859 380.491 79.6168C381.65 81.5048 383.152 82.9851 384.997 84.0578C386.842 85.1305 389.095 85.6669 391.755 85.6669C394.329 85.6669 396.539 85.1305 398.384 84.0578C400.229 82.9851 401.71 81.5048 402.825 79.6168C403.941 77.6859 404.756 75.4547 405.271 72.923C405.829 70.3914 406.108 67.6667 406.108 64.749V63.3974C406.108 60.5654 405.829 57.9051 405.271 55.4164C404.756 52.8848 403.919 50.6535 402.761 48.7226C401.645 46.7488 400.165 45.2041 398.32 44.0885C396.475 42.9729 394.244 42.4151 391.626 42.4151C389.009 42.4151 386.777 42.9729 384.932 44.0885C383.13 45.2041 381.65 46.7488 380.491 48.7226C379.376 50.6535 378.56 52.8848 378.046 55.4164C377.531 57.9051 377.273 60.5654 377.273 63.3974Z" fill="#09090B"/>
<path d="M450.59 44.0885V98.8613H432.053V29.2207H449.431L450.59 44.0885ZM447.886 61.5952H442.866C442.866 56.4462 443.531 51.812 444.861 47.6928C446.191 43.5307 448.058 39.9908 450.461 37.073C452.864 34.1123 455.717 31.8596 459.021 30.3149C462.368 28.7273 466.101 27.9335 470.22 27.9335C473.481 27.9335 476.463 28.4054 479.167 29.3494C481.87 30.2934 484.187 31.7952 486.118 33.8548C488.092 35.9144 489.593 38.6391 490.623 42.0289C491.696 45.4187 492.232 49.5594 492.232 54.4509V98.8613H473.567V54.3866C473.567 51.2971 473.138 48.8943 472.28 47.1779C471.422 45.4616 470.156 44.2601 468.482 43.5736C466.852 42.8442 464.835 42.4794 462.432 42.4794C459.944 42.4794 457.777 42.9729 455.932 43.9598C454.13 44.9467 452.628 46.3198 451.426 48.079C450.268 49.7953 449.388 51.812 448.787 54.1291C448.187 56.4462 447.886 58.9349 447.886 61.5952Z" fill="#09090B"/>
<path d="M520.817 44.0885V98.8613H502.28V29.2207H519.658L520.817 44.0885ZM518.113 61.5952H513.093C513.093 56.4462 513.758 51.812 515.088 47.6928C516.418 43.5307 518.285 39.9908 520.688 37.073C523.091 34.1123 525.944 31.8596 529.248 30.3149C532.595 28.7273 536.328 27.9335 540.447 27.9335C543.708 27.9335 546.69 28.4054 549.394 29.3494C552.097 30.2934 554.414 31.7952 556.345 33.8548C558.319 35.9144 559.82 38.6391 560.85 42.0289C561.923 45.4187 562.459 49.5594 562.459 54.4509V98.8613H543.794V54.3866C543.794 51.2971 543.365 48.8943 542.507 47.1779C541.649 45.4616 540.383 44.2601 538.709 43.5736C537.079 42.8442 535.062 42.4794 532.659 42.4794C530.171 42.4794 528.004 42.9729 526.159 43.9598C524.357 44.9467 522.855 46.3198 521.653 48.079C520.495 49.7953 519.615 51.812 519.014 54.1291C518.414 56.4462 518.113 58.9349 518.113 61.5952Z" fill="#09090B"/>
<path d="M604.946 100.149C599.539 100.149 594.691 99.2903 590.4 97.574C586.109 95.8148 582.462 93.3904 579.458 90.301C576.498 87.2116 574.223 83.6287 572.636 79.5524C571.048 75.4332 570.254 71.0565 570.254 66.4224V63.8479C570.254 58.5701 571.005 53.7429 572.507 49.3663C574.009 44.9896 576.154 41.1922 578.943 37.974C581.775 34.7559 585.208 32.2887 589.241 30.5723C593.275 28.8131 597.823 27.9335 602.886 27.9335C607.821 27.9335 612.197 28.7487 616.016 30.3792C619.835 32.0098 623.032 34.3268 625.606 37.3304C628.224 40.334 630.198 43.9383 631.528 48.1434C632.858 52.3055 633.523 56.9396 633.523 62.0457V69.7693H578.171V57.4116H615.308V55.9956C615.308 53.4211 614.836 51.1255 613.892 49.1088C612.991 47.0492 611.618 45.4187 609.773 44.2172C607.928 43.0158 605.568 42.4151 602.693 42.4151C600.247 42.4151 598.145 42.9514 596.386 44.0242C594.626 45.0969 593.189 46.5987 592.073 48.5295C591.001 50.4604 590.185 52.7346 589.628 55.352C589.113 57.9265 588.855 60.7585 588.855 63.8479V66.4224C588.855 69.2115 589.241 71.786 590.014 74.1459C590.829 76.5059 591.966 78.5441 593.425 80.2604C594.927 81.9767 596.729 83.3069 598.831 84.2509C600.977 85.1949 603.401 85.6669 606.104 85.6669C609.451 85.6669 612.562 85.0232 615.437 83.736C618.355 82.4058 620.865 80.4106 622.967 77.7503L631.978 87.5334C630.519 89.6359 628.524 91.6526 625.993 93.5835C623.504 95.5144 620.5 97.102 616.982 98.3464C613.463 99.5478 609.451 100.149 604.946 100.149Z" fill="#09090B"/>
<path d="M669.187 85.6669C671.461 85.6669 673.478 85.2378 675.237 84.3796C676.997 83.4785 678.37 82.2342 679.356 80.6466C680.386 79.0161 680.923 77.1066 680.966 74.9183H698.408C698.365 79.8099 697.056 84.1651 694.482 87.9839C691.907 91.7599 688.453 94.742 684.119 96.9304C679.786 99.0758 674.937 100.149 669.573 100.149C664.167 100.149 659.447 99.2474 655.414 97.4453C651.423 95.6431 648.098 93.1544 645.437 89.9792C642.777 86.761 640.782 83.028 639.452 78.7801C638.121 74.4892 637.456 69.898 637.456 65.0064V63.1399C637.456 58.2054 638.121 53.6142 639.452 49.3663C640.782 45.0754 642.777 41.3424 645.437 38.1671C648.098 34.949 651.423 32.4388 655.414 30.6367C659.404 28.8345 664.081 27.9335 669.445 27.9335C675.151 27.9335 680.15 29.0276 684.441 31.216C688.775 33.4043 692.165 36.5366 694.61 40.6129C697.099 44.6463 698.365 49.4306 698.408 54.9658H680.966C680.923 52.6488 680.429 50.5462 679.485 48.6583C678.584 46.7703 677.254 45.2685 675.495 44.1529C673.778 42.9943 671.654 42.4151 669.123 42.4151C666.419 42.4151 664.21 42.9943 662.493 44.1529C660.777 45.2685 659.447 46.8132 658.503 48.787C657.559 50.7179 656.894 52.9277 656.508 55.4164C656.164 57.8622 655.993 60.4367 655.993 63.1399V65.0064C655.993 67.7097 656.164 70.3056 656.508 72.7943C656.851 75.283 657.495 77.4928 658.439 79.4237C659.425 81.3546 660.777 82.8778 662.493 83.9934C664.21 85.1091 666.441 85.6669 669.187 85.6669Z" fill="#09090B"/>
<path d="M739.607 29.2207V42.3507H699.059V29.2207H739.607ZM709.099 12.0358H727.636V77.879C727.636 79.8957 727.893 81.4404 728.408 82.5131C728.966 83.5858 729.781 84.3367 730.854 84.7658C731.927 85.152 733.278 85.3451 734.909 85.3451C736.067 85.3451 737.097 85.3022 737.998 85.2163C738.942 85.0876 739.736 84.9589 740.38 84.8302L740.444 98.4751C738.856 98.99 737.14 99.3976 735.295 99.698C733.45 99.9983 731.412 100.149 729.18 100.149C725.104 100.149 721.543 99.4834 718.496 98.1533C715.493 96.7802 713.176 94.5919 711.545 91.5883C709.914 88.5847 709.099 84.6371 709.099 79.7455V12.0358Z" fill="#09090B"/>
<path d="M778.554 100.149C773.147 100.149 768.299 99.2903 764.008 97.574C759.717 95.8148 756.07 93.3904 753.066 90.301C750.105 87.2116 747.831 83.6287 746.244 79.5524C744.656 75.4332 743.862 71.0565 743.862 66.4224V63.8479C743.862 58.5701 744.613 53.7429 746.115 49.3663C747.617 44.9896 749.762 41.1922 752.551 37.974C755.383 34.7559 758.816 32.2887 762.849 30.5723C766.883 28.8131 771.431 27.9335 776.494 27.9335C781.429 27.9335 785.805 28.7487 789.624 30.3792C793.443 32.0098 796.64 34.3268 799.214 37.3304C801.832 40.334 803.806 43.9383 805.136 48.1434C806.466 52.3055 807.131 56.9396 807.131 62.0457V69.7693H751.779V57.4116H788.916V55.9956C788.916 53.4211 788.444 51.1255 787.5 49.1088C786.599 47.0492 785.226 45.4187 783.381 44.2172C781.536 43.0158 779.176 42.4151 776.301 42.4151C773.855 42.4151 771.753 42.9514 769.994 44.0242C768.234 45.0969 766.797 46.5987 765.681 48.5295C764.609 50.4604 763.793 52.7346 763.235 55.352C762.721 57.9265 762.463 60.7585 762.463 63.8479V66.4224C762.463 69.2115 762.849 71.786 763.622 74.1459C764.437 76.5059 765.574 78.5441 767.033 80.2604C768.535 81.9767 770.337 83.3069 772.439 84.2509C774.585 85.1949 777.009 85.6669 779.712 85.6669C783.059 85.6669 786.17 85.0232 789.045 83.736C791.963 82.4058 794.473 80.4106 796.575 77.7503L805.586 87.5334C804.127 89.6359 802.132 91.6526 799.6 93.5835C797.112 95.5144 794.108 97.102 790.59 98.3464C787.071 99.5478 783.059 100.149 778.554 100.149Z" fill="#09090B"/>
<path d="M855.153 83.6716V0H873.818V98.8613H857.019L855.153 83.6716ZM811.129 64.8777V63.5261C811.129 58.2054 811.729 53.3782 812.931 49.0444C814.132 44.6678 815.891 40.9133 818.208 37.781C820.526 34.6486 823.379 32.2243 826.769 30.508C830.158 28.7916 834.02 27.9335 838.354 27.9335C842.43 27.9335 845.992 28.7916 849.038 30.508C852.128 32.2243 854.745 34.6701 856.891 37.8453C859.079 40.9776 860.838 44.6892 862.168 48.9801C863.498 53.228 864.464 57.8836 865.065 62.9468V65.9075C864.464 70.7562 863.498 75.2616 862.168 79.4237C860.838 83.5858 859.079 87.233 856.891 90.3654C854.745 93.4548 852.128 95.8577 849.038 97.574C845.949 99.2903 842.344 100.149 838.225 100.149C833.892 100.149 830.03 99.2689 826.64 97.5096C823.293 95.7504 820.461 93.2831 818.144 90.1079C815.87 86.9327 814.132 83.1996 812.931 78.9088C811.729 74.6179 811.129 69.9409 811.129 64.8777ZM829.665 63.5261V64.8777C829.665 67.7526 829.88 70.4344 830.309 72.923C830.781 75.4117 831.532 77.6215 832.561 79.5524C833.634 81.4404 835.007 82.9207 836.681 83.9934C838.397 85.0233 840.478 85.5382 842.924 85.5382C846.099 85.5382 848.716 84.8302 850.776 83.4142C852.836 81.9553 854.402 79.96 855.474 77.4284C856.59 74.8968 857.234 71.9791 857.405 68.6751V60.2436C857.277 57.5403 856.891 55.116 856.247 52.9706C855.646 50.7822 854.745 48.9157 853.544 47.371C852.385 45.8263 850.926 44.6249 849.167 43.7667C847.451 42.9085 845.412 42.4794 843.052 42.4794C840.65 42.4794 838.59 43.0373 836.874 44.1529C835.157 45.2256 833.763 46.7059 832.69 48.5939C831.66 50.4819 830.888 52.7131 830.373 55.2876C829.901 57.8192 829.665 60.5654 829.665 63.5261Z" fill="#09090B"/>
<path d="M937.551 83.9934L956.217 5.14902H966.643L969.025 18.279L949.137 98.8613H937.938L937.551 83.9934ZM927.961 5.14902L943.408 83.9934L942.121 98.8613H929.635L908.846 5.14902H927.961ZM985.437 83.6716L1000.69 5.14902H1019.81L999.082 98.8613H986.596L985.437 83.6716ZM972.5 5.14902L991.294 84.3153L990.779 98.8613H979.58L959.563 18.2147L962.138 5.14902H972.5Z" fill="#09090B"/>
<path d="M1045.04 29.2207V98.8613H1026.44V29.2207H1045.04ZM1025.29 11.0704C1025.29 8.36716 1026.23 6.13592 1028.12 4.37667C1030 2.61742 1032.54 1.7378 1035.71 1.7378C1038.84 1.7378 1041.35 2.61742 1043.24 4.37667C1045.17 6.13592 1046.14 8.36716 1046.14 11.0704C1046.14 13.7736 1045.17 16.0049 1043.24 17.7641C1041.35 19.5234 1038.84 20.403 1035.71 20.403C1032.54 20.403 1030 19.5234 1028.12 17.7641C1026.23 16.0049 1025.29 13.7736 1025.29 11.0704Z" fill="#09090B"/>
<path d="M1090.81 29.2207V42.3507H1050.26V29.2207H1090.81ZM1060.31 12.0358H1078.84V77.879C1078.84 79.8957 1079.1 81.4404 1079.61 82.5131C1080.17 83.5858 1080.99 84.3367 1082.06 84.7658C1083.13 85.152 1084.48 85.3451 1086.11 85.3451C1087.27 85.3451 1088.3 85.3022 1089.2 85.2163C1090.15 85.0876 1090.94 84.9589 1091.59 84.8302L1091.65 98.4751C1090.06 98.99 1088.35 99.3976 1086.5 99.698C1084.66 99.9983 1082.62 100.149 1080.39 100.149C1076.31 100.149 1072.75 99.4834 1069.7 98.1533C1066.7 96.7802 1064.38 94.5919 1062.75 91.5883C1061.12 88.5847 1060.31 84.6371 1060.31 79.7455V12.0358Z" fill="#09090B"/>
<path d="M1115.79 0V98.8613H1097.26V0H1115.79ZM1113.15 61.5952H1108.07C1108.11 56.7465 1108.76 52.284 1110 48.2077C1111.25 44.0885 1113.03 40.5271 1115.34 37.5235C1117.66 34.477 1120.43 32.117 1123.65 30.4436C1126.91 28.7702 1130.51 27.9335 1134.46 27.9335C1137.89 27.9335 1141 28.4269 1143.79 29.4138C1146.62 30.3578 1149.05 31.9025 1151.06 34.0479C1153.12 36.1504 1154.71 38.918 1155.83 42.3507C1156.94 45.7834 1157.5 49.9455 1157.5 54.8371V98.8613H1138.84V54.7084C1138.84 51.619 1138.38 49.1946 1137.48 47.4354C1136.63 45.6332 1135.36 44.3674 1133.69 43.638C1132.06 42.8656 1130.04 42.4794 1127.64 42.4794C1124.98 42.4794 1122.7 42.9729 1120.81 43.9598C1118.97 44.9467 1117.49 46.3198 1116.37 48.079C1115.26 49.7953 1114.44 51.812 1113.93 54.1291C1113.41 56.4462 1113.15 58.9349 1113.15 61.5952Z" fill="#09090B"/>
<path d="M1250 5.14902H1269.25V67.066C1269.25 74.2747 1267.7 80.3462 1264.61 85.2807C1261.57 90.2152 1257.34 93.9268 1251.94 96.4155C1246.57 98.9042 1240.39 100.149 1233.4 100.149C1226.4 100.149 1220.18 98.9042 1214.73 96.4155C1209.33 93.9268 1205.08 90.2152 1201.99 85.2807C1198.94 80.3462 1197.42 74.2747 1197.42 67.066V5.14902H1216.73V67.066C1216.73 71.2711 1217.39 74.7038 1218.72 77.3641C1220.05 80.0244 1221.96 81.9767 1224.45 83.2211C1226.98 84.4654 1229.97 85.0876 1233.4 85.0876C1236.92 85.0876 1239.9 84.4654 1242.34 83.2211C1244.83 81.9767 1246.72 80.0244 1248.01 77.3641C1249.34 74.7038 1250 71.2711 1250 67.066V5.14902Z" fill="#09090B"/>
<path d="M1317.98 79.6168C1317.98 78.2866 1317.59 77.0852 1316.82 76.0125C1316.05 74.9397 1314.61 73.9529 1312.51 73.0518C1310.45 72.1078 1307.47 71.2496 1303.56 70.4773C1300.04 69.7049 1296.76 68.7395 1293.71 67.5809C1290.71 66.3795 1288.09 64.9421 1285.86 63.2686C1283.67 61.5952 1281.96 59.6214 1280.71 57.3473C1279.47 55.0302 1278.85 52.3913 1278.85 49.4306C1278.85 46.5128 1279.47 43.7667 1280.71 41.1922C1282 38.6177 1283.82 36.3435 1286.18 34.3697C1288.59 32.353 1291.5 30.7869 1294.94 29.6712C1298.41 28.5127 1302.32 27.9335 1306.65 27.9335C1312.7 27.9335 1317.89 28.8989 1322.23 30.8298C1326.6 32.7607 1329.95 35.421 1332.27 38.8108C1334.63 42.1576 1335.81 45.9765 1335.81 50.2673H1317.27C1317.27 48.4652 1316.88 46.8561 1316.11 45.4401C1315.38 43.9812 1314.22 42.8442 1312.64 42.0289C1311.09 41.1707 1309.07 40.7416 1306.59 40.7416C1304.53 40.7416 1302.75 41.1064 1301.24 41.8358C1299.74 42.5224 1298.58 43.4663 1297.77 44.6678C1297 45.8263 1296.61 47.1136 1296.61 48.5295C1296.61 49.6023 1296.82 50.5677 1297.25 51.4259C1297.73 52.2411 1298.48 52.992 1299.51 53.6786C1300.54 54.3651 1301.87 55.0087 1303.5 55.6095C1305.17 56.1673 1307.23 56.6822 1309.68 57.1542C1314.7 58.184 1319.18 59.5356 1323.13 61.209C1327.08 62.8395 1330.21 65.0708 1332.52 67.9027C1334.84 70.6918 1336 74.3605 1336 78.9088C1336 81.9982 1335.31 84.8302 1333.94 87.4047C1332.57 89.9792 1330.59 92.2319 1328.02 94.1628C1325.44 96.0507 1322.36 97.5311 1318.75 98.6038C1315.19 99.6336 1311.18 100.149 1306.71 100.149C1300.24 100.149 1294.74 98.99 1290.24 96.6729C1285.78 94.3559 1282.39 91.4166 1280.07 87.8552C1277.79 84.2509 1276.66 80.5608 1276.66 76.7848H1294.23C1294.31 79.3164 1294.96 81.3546 1296.16 82.8993C1297.4 84.444 1298.97 85.5596 1300.86 86.2461C1302.79 86.9327 1304.87 87.2759 1307.1 87.2759C1309.5 87.2759 1311.5 86.9541 1313.09 86.3105C1314.67 85.624 1315.88 84.7229 1316.69 83.6073C1317.55 82.4487 1317.98 81.1186 1317.98 79.6168Z" fill="#09090B"/>
</svg>
