<svg width="169" height="257" viewBox="0 0 169 257" fill="none" xmlns="http://www.w3.org/2000/svg">
<path d="M166.504 250.597C168.168 252.144 169 253.453 169 254.524C169 255.952 168.109 256.667 166.326 256.667C165.613 256.667 164.84 256.488 164.008 256.131C163.176 255.893 161.156 254.881 157.947 253.096C154.738 251.311 150.698 248.812 145.825 245.598C140.952 242.385 135.426 238.398 129.246 233.637C123.185 228.877 116.886 223.342 110.349 217.035C102.862 222.985 94.7208 227.806 85.9262 231.495C77.1315 235.184 68.0397 237.029 58.6508 237.029C50.2127 237.029 42.4283 235.363 35.2975 232.031C28.1667 228.698 21.9866 224.235 16.7574 218.641C11.5281 213.048 7.42792 206.561 4.45675 199.183C1.48558 191.804 0 184.008 0 175.796C0 167.822 1.12904 160.681 3.38713 154.374C5.64522 147.947 8.67581 142.115 12.4789 136.879C16.4008 131.642 20.917 126.881 26.0274 122.597C31.2567 118.312 36.7236 114.206 42.4283 110.279C39.8136 101.71 37.9121 93.2597 36.7236 84.9287C35.654 76.5977 35.1192 68.1477 35.1192 59.5786C35.1192 52.0807 35.8323 44.8209 37.2584 37.799C38.8034 30.6581 41.2992 24.3504 44.7458 18.8757C48.1923 13.401 52.7085 8.99751 58.2943 5.66511C63.9989 2.33271 71.0703 0.666504 79.5084 0.666504C85.9262 0.666504 91.6308 1.67813 96.6223 3.70137C101.733 5.6056 106.011 8.34293 109.458 11.9134C112.904 15.4838 115.519 19.7683 117.302 24.7669C119.203 29.6465 120.154 35.0022 120.154 40.8339C120.154 48.9269 118.728 56.0677 115.876 62.2565C113.142 68.3262 109.458 73.9794 104.823 79.216C100.307 84.3336 95.0773 89.2132 89.135 93.8548C83.1927 98.4964 77.1315 103.316 70.9515 108.315C75.943 121.288 82.0042 134.32 89.135 147.411C96.3847 160.384 104.11 172.999 112.31 185.258C114.212 181.33 115.697 177.046 116.767 172.404C117.836 167.644 118.371 162.467 118.371 156.873C118.371 151.636 117.836 147.114 116.767 143.305C115.816 139.378 114.746 136.105 113.558 133.487C112.488 130.749 111.419 128.548 110.349 126.881C109.398 125.215 108.923 123.965 108.923 123.132C108.923 121.704 109.458 120.812 110.527 120.455C111.716 119.978 113.083 119.74 114.628 119.74C115.46 119.74 116.826 119.919 118.728 120.276C120.629 120.514 122.769 121.05 125.146 121.883C127.522 122.716 130.018 123.965 132.633 125.632C135.248 127.179 137.565 129.262 139.585 131.88C141.725 134.498 143.448 137.771 144.755 141.699C146.181 145.626 146.895 150.268 146.895 155.623C146.895 162.764 144.874 170.56 140.833 179.01C136.911 187.46 131.563 195.553 124.789 203.289C131.92 212.929 139.051 221.795 146.181 229.888C153.312 237.862 160.086 244.765 166.504 250.597ZM60.4335 219.177C66.0193 219.177 72.1399 217.987 78.7953 215.607C85.5696 213.226 91.9279 209.418 97.8702 204.181C94.5425 200.492 91.2148 196.624 87.8871 192.577C84.6783 188.531 81.5288 184.246 78.4388 179.724C71.9022 170.441 66.1976 161.574 61.3249 153.124C56.571 144.674 52.4708 136.402 49.0243 128.309C48.3112 129.143 47.5981 129.916 46.885 130.63C46.1719 131.344 45.5183 132.118 44.924 132.951C39.2194 139.735 35.1192 146.816 32.6234 154.195C30.1276 161.455 28.8797 168.655 28.8797 175.796C28.8797 181.747 29.5928 187.4 31.019 192.756C32.4451 197.992 34.4655 202.574 37.0802 206.502C39.8136 210.429 43.1413 213.524 47.0633 215.785C50.9852 218.046 55.442 219.177 60.4335 219.177ZM57.7595 50.474C57.7595 57.0198 58.4131 63.9227 59.7205 71.1825C61.1466 78.3234 63.1076 85.7618 65.6034 93.4977C69.4065 90.0463 73.0313 86.2379 76.4778 82.0724C79.9244 77.9069 82.955 73.6223 85.5696 69.2188C88.1842 64.6963 90.2641 60.1142 91.8091 55.4726C93.3541 50.8311 94.1266 46.368 94.1266 42.0835C94.1266 37.918 93.4729 34.2286 92.1656 31.0152C90.9771 27.8018 89.4321 25.0645 87.5306 22.8032C85.7479 20.5419 83.7869 18.8757 81.6477 17.8046C79.5084 16.6144 77.5475 16.0194 75.7648 16.0194C74.1009 16.0194 72.2588 16.6739 70.2384 17.9831C68.218 19.1732 66.257 21.137 64.3555 23.8743C62.4539 26.6116 60.8495 30.1821 59.5422 34.5856C58.3537 38.8701 57.7595 44.1663 57.7595 50.474Z" fill="#F2500D"/>
</svg>
