<svg width="1216" height="289" viewBox="0 0 1216 289" fill="none" xmlns="http://www.w3.org/2000/svg">
<path d="M51.12 125.304C42.288 125.304 34.704 123.816 28.368 120.84C22.032 117.864 17.088 113.688 13.536 108.312C9.984 102.936 7.968 96.6 7.488 89.304L29.52 88.296C30.096 92.328 31.248 95.784 32.976 98.664C34.8 101.448 37.2 103.56 40.176 105C43.248 106.44 46.992 107.16 51.408 107.16C55.056 107.16 58.128 106.728 60.624 105.864C63.216 105 65.184 103.704 66.528 101.976C67.872 100.152 68.544 97.944 68.544 95.352C68.544 92.952 67.968 90.888 66.816 89.16C65.664 87.336 63.456 85.704 60.192 84.264C56.928 82.728 52.128 81.24 45.792 79.8C37.056 77.784 30 75.528 24.624 73.032C19.344 70.536 15.504 67.416 13.104 63.672C10.704 59.832 9.504 55.032 9.504 49.272C9.504 43.128 10.992 37.752 13.968 33.144C17.04 28.536 21.456 24.936 27.216 22.344C32.976 19.752 39.84 18.456 47.808 18.456C56.256 18.456 63.408 19.944 69.264 22.92C75.12 25.896 79.68 29.976 82.944 35.16C86.304 40.344 88.32 46.296 88.992 53.016L67.104 54.168C66.816 50.616 65.856 47.544 64.224 44.952C62.592 42.264 60.384 40.2 57.6 38.76C54.816 37.32 51.456 36.6 47.52 36.6C42.528 36.6 38.592 37.704 35.712 39.912C32.928 42.12 31.536 45 31.536 48.552C31.536 51.048 32.16 53.16 33.408 54.888C34.752 56.52 36.912 57.96 39.888 59.208C42.96 60.456 47.28 61.656 52.848 62.808C62.352 64.728 69.84 67.176 75.312 70.152C80.88 73.032 84.816 76.488 87.12 80.52C89.424 84.552 90.576 89.16 90.576 94.344C90.576 100.68 88.944 106.2 85.68 110.904C82.512 115.512 77.952 119.064 72 121.56C66.144 124.056 59.184 125.304 51.12 125.304ZM97.5196 123V45.816H116.96L117.68 64.392L115.664 63.528C116.72 59.4 118.304 55.896 120.416 53.016C122.624 50.136 125.264 47.928 128.336 46.392C131.408 44.856 134.768 44.088 138.416 44.088C144.848 44.088 150.032 45.96 153.968 49.704C158 53.448 160.592 58.488 161.744 64.824L159.008 64.968C159.872 60.456 161.36 56.664 163.472 53.592C165.68 50.424 168.368 48.072 171.536 46.536C174.704 44.904 178.256 44.088 182.192 44.088C187.568 44.088 192.176 45.192 196.016 47.4C199.856 49.608 202.832 52.92 204.944 57.336C207.056 61.656 208.112 66.984 208.112 73.32V123H186.512V79.368C186.512 73.32 185.6 68.808 183.776 65.832C181.952 62.76 178.976 61.224 174.848 61.224C172.256 61.224 170.048 61.944 168.224 63.384C166.4 64.824 164.96 66.936 163.904 69.72C162.944 72.408 162.464 75.72 162.464 79.656V123H143.024V79.656C143.024 73.704 142.16 69.144 140.432 65.976C138.704 62.808 135.728 61.224 131.504 61.224C128.912 61.224 126.656 61.944 124.736 63.384C122.912 64.824 121.52 66.936 120.56 69.72C119.6 72.504 119.12 75.816 119.12 79.656V123H97.5196ZM238.244 124.728C230.276 124.728 223.748 122.904 218.66 119.256C213.668 115.512 211.172 110.328 211.172 103.704C211.172 96.888 213.284 91.656 217.508 88.008C221.828 84.264 228.164 81.528 236.516 79.8L261.428 74.904C261.428 69.912 260.276 66.168 257.972 63.672C255.764 61.08 252.548 59.784 248.324 59.784C244.196 59.784 240.98 60.744 238.676 62.664C236.372 64.488 234.884 67.224 234.212 70.872L212.468 69.864C213.908 61.416 217.7 55.032 223.844 50.712C230.084 46.296 238.244 44.088 248.324 44.088C259.844 44.088 268.484 46.824 274.244 52.296C280.1 57.768 283.028 65.784 283.028 76.344V102.696C283.028 104.904 283.364 106.392 284.036 107.16C284.804 107.832 285.908 108.168 287.348 108.168H289.508V123C288.836 123.192 287.732 123.384 286.196 123.576C284.756 123.768 283.316 123.864 281.876 123.864C278.804 123.864 275.924 123.336 273.236 122.28C270.644 121.224 268.532 119.448 266.9 116.952C265.268 114.36 264.452 110.712 264.452 106.008L266.324 107.448C265.364 110.904 263.636 113.928 261.14 116.52C258.74 119.112 255.572 121.128 251.636 122.568C247.796 124.008 243.332 124.728 238.244 124.728ZM243.428 109.896C246.98 109.896 250.1 109.224 252.788 107.88C255.476 106.44 257.588 104.376 259.124 101.688C260.66 99 261.428 95.832 261.428 92.184V88.44L243.86 92.184C240.404 92.856 237.764 94.008 235.94 95.64C234.212 97.176 233.348 99.192 233.348 101.688C233.348 104.28 234.212 106.296 235.94 107.736C237.668 109.176 240.164 109.896 243.428 109.896ZM290.848 123V45.816H311.296L312.016 68.28L310.432 67.848C311.68 60.072 313.888 54.456 317.056 51C320.224 47.544 324.592 45.816 330.16 45.816H337.216V63.672H330.16C326.128 63.672 322.816 64.2 320.224 65.256C317.632 66.312 315.664 67.992 314.32 70.296C313.072 72.6 312.448 75.72 312.448 79.656V123H290.848ZM369.347 123C361.379 123 355.523 121.176 351.779 117.528C348.035 113.784 346.163 107.88 346.163 99.816V27.672H367.763V97.224C367.763 100.968 368.531 103.512 370.067 104.856C371.699 106.2 374.099 106.872 377.267 106.872H388.067V123H369.347ZM333.779 61.944V45.816H388.067V61.944H333.779ZM455.886 125.304C447.054 125.304 439.47 123.816 433.134 120.84C426.798 117.864 421.854 113.688 418.302 108.312C414.75 102.936 412.734 96.6 412.254 89.304L434.286 88.296C434.862 92.328 436.014 95.784 437.742 98.664C439.566 101.448 441.966 103.56 444.942 105C448.014 106.44 451.758 107.16 456.174 107.16C459.822 107.16 462.894 106.728 465.39 105.864C467.982 105 469.95 103.704 471.294 101.976C472.638 100.152 473.31 97.944 473.31 95.352C473.31 92.952 472.734 90.888 471.582 89.16C470.43 87.336 468.222 85.704 464.958 84.264C461.694 82.728 456.894 81.24 450.558 79.8C441.822 77.784 434.766 75.528 429.39 73.032C424.11 70.536 420.27 67.416 417.87 63.672C415.47 59.832 414.27 55.032 414.27 49.272C414.27 43.128 415.758 37.752 418.734 33.144C421.806 28.536 426.222 24.936 431.982 22.344C437.742 19.752 444.606 18.456 452.574 18.456C461.022 18.456 468.174 19.944 474.03 22.92C479.886 25.896 484.446 29.976 487.71 35.16C491.07 40.344 493.086 46.296 493.758 53.016L471.87 54.168C471.582 50.616 470.622 47.544 468.99 44.952C467.358 42.264 465.15 40.2 462.366 38.76C459.582 37.32 456.222 36.6 452.286 36.6C447.294 36.6 443.358 37.704 440.478 39.912C437.694 42.12 436.302 45 436.302 48.552C436.302 51.048 436.926 53.16 438.174 54.888C439.518 56.52 441.678 57.96 444.654 59.208C447.726 60.456 452.046 61.656 457.614 62.808C467.118 64.728 474.606 67.176 480.078 70.152C485.646 73.032 489.582 76.488 491.886 80.52C494.19 84.552 495.342 89.16 495.342 94.344C495.342 100.68 493.71 106.2 490.446 110.904C487.278 115.512 482.718 119.064 476.766 121.56C470.91 124.056 463.95 125.304 455.886 125.304ZM538.262 124.728C530.39 124.728 523.526 123.096 517.67 119.832C511.814 116.472 507.254 111.768 503.99 105.72C500.726 99.672 499.094 92.568 499.094 84.408C499.094 76.248 500.726 69.192 503.99 63.24C507.254 57.192 511.814 52.488 517.67 49.128C523.526 45.768 530.39 44.088 538.262 44.088C546.134 44.088 552.998 45.768 558.854 49.128C564.71 52.488 569.27 57.192 572.534 63.24C575.798 69.192 577.43 76.248 577.43 84.408C577.43 92.568 575.798 99.672 572.534 105.72C569.27 111.768 564.71 116.472 558.854 119.832C552.998 123.096 546.134 124.728 538.262 124.728ZM538.262 108.168C543.638 108.168 547.814 106.104 550.79 101.976C553.766 97.752 555.254 91.896 555.254 84.408C555.254 76.92 553.766 71.112 550.79 66.984C547.814 62.76 543.638 60.648 538.262 60.648C532.886 60.648 528.71 62.76 525.734 66.984C522.758 71.112 521.27 76.92 521.27 84.408C521.27 91.896 522.758 97.752 525.734 101.976C528.71 106.104 532.886 108.168 538.262 108.168ZM601.742 123C595.406 123 590.462 121.416 586.91 118.248C583.358 115.08 581.582 109.944 581.582 102.84V20.76H603.182V100.536C603.182 102.84 603.71 104.472 604.766 105.432C605.822 106.392 607.358 106.872 609.374 106.872H614.558V123H601.742ZM640.942 124.728C632.974 124.728 626.734 122.184 622.222 117.096C617.806 111.912 615.598 104.712 615.598 95.496V45.816H637.198V90.456C637.198 96.408 638.11 100.776 639.934 103.56C641.758 106.248 644.638 107.592 648.574 107.592C652.99 107.592 656.398 106.104 658.798 103.128C661.294 100.056 662.542 95.496 662.542 89.448V45.816H684.142V123H664.414L663.838 100.824L666.574 101.4C665.422 109.08 662.686 114.888 658.366 118.824C654.046 122.76 648.238 124.728 640.942 124.728ZM721.941 123C713.973 123 708.117 121.176 704.373 117.528C700.629 113.784 698.757 107.88 698.757 99.816V27.672H720.357V97.224C720.357 100.968 721.125 103.512 722.661 104.856C724.293 106.2 726.693 106.872 729.861 106.872H740.661V123H721.941ZM686.373 61.944V45.816H740.661V61.944H686.373ZM743.395 123V45.816H764.995V123H743.395ZM742.963 36.312V19.032H765.283V36.312H742.963ZM807.48 124.728C799.608 124.728 792.744 123.096 786.888 119.832C781.032 116.472 776.472 111.768 773.208 105.72C769.944 99.672 768.312 92.568 768.312 84.408C768.312 76.248 769.944 69.192 773.208 63.24C776.472 57.192 781.032 52.488 786.888 49.128C792.744 45.768 799.608 44.088 807.48 44.088C815.352 44.088 822.216 45.768 828.072 49.128C833.928 52.488 838.488 57.192 841.752 63.24C845.016 69.192 846.648 76.248 846.648 84.408C846.648 92.568 845.016 99.672 841.752 105.72C838.488 111.768 833.928 116.472 828.072 119.832C822.216 123.096 815.352 124.728 807.48 124.728ZM807.48 108.168C812.856 108.168 817.032 106.104 820.008 101.976C822.984 97.752 824.472 91.896 824.472 84.408C824.472 76.92 822.984 71.112 820.008 66.984C817.032 62.76 812.856 60.648 807.48 60.648C802.104 60.648 797.928 62.76 794.952 66.984C791.976 71.112 790.488 76.92 790.488 84.408C790.488 91.896 791.976 97.752 794.952 101.976C797.928 106.104 802.104 108.168 807.48 108.168ZM850.098 123V45.816H869.538L870.402 68.424L867.666 67.704C868.434 61.944 869.97 57.336 872.274 53.88C874.674 50.424 877.65 47.928 881.202 46.392C884.754 44.856 888.642 44.088 892.866 44.088C898.434 44.088 903.138 45.288 906.978 47.688C910.914 50.088 913.89 53.496 915.906 57.912C918.018 62.232 919.074 67.368 919.074 73.32V123H897.474V80.52C897.474 76.392 897.138 72.888 896.466 70.008C895.794 67.128 894.594 64.968 892.866 63.528C891.138 61.992 888.738 61.224 885.666 61.224C881.154 61.224 877.698 62.904 875.298 66.264C872.898 69.528 871.698 74.28 871.698 80.52V123H850.098ZM959.277 124.728C951.309 124.728 944.637 123.624 939.261 121.416C933.885 119.112 929.757 116.04 926.877 112.2C924.093 108.264 922.509 103.752 922.125 98.664L944.013 97.944C944.685 101.592 946.221 104.424 948.621 106.44C951.021 108.456 954.573 109.464 959.277 109.464C963.117 109.464 966.093 108.84 968.205 107.592C970.413 106.344 971.517 104.424 971.517 101.832C971.517 100.2 971.133 98.856 970.365 97.8C969.597 96.648 968.061 95.688 965.757 94.92C963.549 94.056 960.237 93.288 955.821 92.616C947.661 91.176 941.277 89.496 936.669 87.576C932.061 85.656 928.797 83.16 926.877 80.088C924.957 77.016 923.997 73.272 923.997 68.856C923.997 61.464 926.829 55.512 932.493 51C938.253 46.392 946.845 44.088 958.269 44.088C965.565 44.088 971.661 45.24 976.557 47.544C981.549 49.848 985.389 53.016 988.077 57.048C990.861 60.984 992.589 65.496 993.261 70.584L971.517 71.448C971.229 68.952 970.461 66.84 969.213 65.112C968.061 63.288 966.573 61.896 964.749 60.936C962.925 59.88 960.717 59.352 958.125 59.352C954.285 59.352 951.309 60.168 949.197 61.8C947.181 63.336 946.173 65.4 946.173 67.992C946.173 69.912 946.605 71.496 947.469 72.744C948.429 73.896 949.965 74.856 952.077 75.624C954.189 76.392 957.021 77.016 960.573 77.496C968.829 78.648 975.357 80.28 980.157 82.392C985.053 84.408 988.557 86.952 990.669 90.024C992.781 93.096 993.837 96.888 993.837 101.4C993.837 106.392 992.397 110.616 989.517 114.072C986.637 117.528 982.605 120.168 977.421 121.992C972.333 123.816 966.285 124.728 959.277 124.728Z" fill="white"/>
<path d="M140.016 175.93C140.016 176.164 139.992 176.914 139.945 178.18C139.898 179.398 139.828 181.016 139.734 183.031C139.641 185 139.523 187.297 139.383 189.922C139.289 192.5 139.148 195.289 138.961 198.289C138.82 201.242 138.656 204.336 138.469 207.57C138.328 210.805 138.188 214.039 138.047 217.273C140.719 217.32 143.18 217.484 145.43 217.766C147.727 218 149.766 218.258 151.547 218.539C153.094 218.82 154.336 219.078 155.273 219.312C156.258 219.547 157.031 219.781 157.594 220.016C158.203 220.203 158.648 220.438 158.93 220.719C159.258 220.953 159.539 221.234 159.773 221.562C159.961 221.844 160.219 222.102 160.547 222.336C160.922 222.523 161.273 222.734 161.602 222.969C161.93 223.156 162.211 223.367 162.445 223.602C162.68 223.836 162.797 224.117 162.797 224.445C162.797 224.82 162.656 225.172 162.375 225.5C162.141 225.781 161.836 225.969 161.461 226.062C161.039 226.203 160.055 226.32 158.508 226.414C156.961 226.508 154.594 226.625 151.406 226.766C149.672 226.859 147.586 226.93 145.148 226.977C142.711 227.023 140.18 227.094 137.555 227.188C137.414 230.047 137.25 232.766 137.062 235.344C136.922 237.922 136.781 240.266 136.641 242.375C136.547 244.438 136.453 246.195 136.359 247.648C136.266 249.102 136.195 250.156 136.148 250.812C136.008 252.641 135.586 254.82 134.883 257.352C134.227 259.93 133.148 262.578 131.648 265.297C130.195 268.062 128.273 270.781 125.883 273.453C123.492 276.125 120.469 278.492 116.812 280.555C116.156 280.883 115.664 281.047 115.336 281.047C114.633 281.047 114.281 280.766 114.281 280.203C114.281 279.828 114.539 279.336 115.055 278.727C116.695 276.992 118.055 275.281 119.133 273.594C120.211 271.953 121.078 270.078 121.734 267.969C122.438 265.859 122.953 263.398 123.281 260.586C123.656 257.82 123.961 254.469 124.195 250.531C124.242 249.406 124.312 247.812 124.406 245.75C124.5 243.969 124.617 241.625 124.758 238.719C124.898 235.766 125.086 232.016 125.32 227.469C122.086 227.562 119.695 227.727 118.148 227.961C116.648 228.148 115.734 228.312 115.406 228.453C115.125 228.547 114.961 228.711 114.914 228.945C114.914 229.133 114.891 229.344 114.844 229.578C114.797 229.766 114.703 229.953 114.562 230.141C114.422 230.281 114.117 230.352 113.648 230.352C113.32 230.352 112.898 230.281 112.383 230.141C111.914 230 111.445 229.812 110.977 229.578C110.555 229.297 110.18 228.992 109.852 228.664C109.523 228.289 109.359 227.891 109.359 227.469C109.359 226.672 109.852 225.734 110.836 224.656C111.07 224.422 111.492 224.023 112.102 223.461C112.758 222.898 113.672 222.312 114.844 221.703C116.016 221.047 117.492 220.414 119.273 219.805C121.055 219.148 123.234 218.609 125.812 218.188L127.641 184.297C127.688 183.688 127.758 182.984 127.852 182.188C127.945 181.344 128.133 180.547 128.414 179.797C128.742 179 129.211 178.297 129.82 177.688C130.477 177.031 131.367 176.586 132.492 176.352C133.336 176.164 134.086 175.859 134.742 175.438C135.398 174.969 135.984 174.5 136.5 174.031C137.062 173.562 137.555 173.141 137.977 172.766C138.445 172.391 138.867 172.203 139.242 172.203C139.43 172.203 139.57 172.32 139.664 172.555C139.805 172.789 139.898 173.094 139.945 173.469C139.992 173.844 140.016 174.266 140.016 174.734C140.016 175.156 140.016 175.555 140.016 175.93ZM181.359 161.234C181.266 161.75 181.055 162.172 180.727 162.5C180.445 162.828 180.141 163.156 179.812 163.484C179.484 163.812 179.156 164.141 178.828 164.469C178.547 164.797 178.383 165.219 178.336 165.734C178.195 166.812 177.633 167.703 176.648 168.406C175.664 169.062 174.516 169.391 173.203 169.391C172.078 169.391 170.203 169.32 167.578 169.18C164.953 169.039 161.953 168.969 158.578 168.969C154.828 168.969 150.961 169.109 146.977 169.391C143.039 169.672 139.195 170.117 135.445 170.727C131.695 171.336 128.156 172.133 124.828 173.117C121.547 174.102 118.664 175.32 116.18 176.773C113.695 178.18 111.727 179.82 110.273 181.695C108.82 183.57 108.094 185.703 108.094 188.094C108.094 191.469 108.656 194.445 109.781 197.023C110.906 199.602 112.148 201.805 113.508 203.633C114.914 205.461 116.18 206.914 117.305 207.992C118.43 209.07 118.992 209.797 118.992 210.172C118.992 210.594 118.688 210.969 118.078 211.297C117.469 211.625 116.578 211.789 115.406 211.789C112.781 211.789 110.414 211.227 108.305 210.102C106.195 208.93 104.367 207.406 102.82 205.531C101.32 203.609 100.148 201.43 99.3047 198.992C98.5078 196.555 98.1094 194.023 98.1094 191.398C98.1094 187.367 99.0469 183.57 100.922 180.008C102.844 176.398 105.469 173.164 108.797 170.305C112.172 167.445 116.109 164.984 120.609 162.922C125.109 160.859 129.961 159.336 135.164 158.352C141.305 157.18 146.953 156.43 152.109 156.102C157.266 155.727 161.883 155.539 165.961 155.539C169.711 155.539 172.664 155.68 174.82 155.961C176.977 156.195 178.57 156.5 179.602 156.875C180.68 157.25 181.336 157.672 181.57 158.141C181.852 158.562 181.992 158.961 181.992 159.336C181.992 159.617 181.898 159.898 181.711 160.18C181.57 160.461 181.453 160.812 181.359 161.234ZM183.133 252.008C184.258 252.008 185.242 251.633 186.086 250.883C186.93 250.133 187.633 249.148 188.195 247.93C188.805 246.711 189.297 245.305 189.672 243.711C190.047 242.07 190.328 240.383 190.516 238.648C189.156 237.711 187.82 236.492 186.508 234.992C185.242 233.492 184.094 231.664 183.062 229.508C182.453 228.242 182.008 226.953 181.727 225.641C181.445 224.281 181.305 222.992 181.305 221.773C181.305 220.227 181.516 218.773 181.938 217.414C182.359 216.055 182.969 214.883 183.766 213.898C184.609 212.914 185.641 212.141 186.859 211.578C188.078 210.969 189.484 210.664 191.078 210.664C193.094 210.664 194.734 211.156 196 212.141C197.312 213.078 198.344 214.297 199.094 215.797C199.844 217.25 200.359 218.844 200.641 220.578C200.969 222.312 201.133 223.93 201.133 225.43C201.133 227.398 200.992 229.414 200.711 231.477C200.477 233.539 200.078 235.625 199.516 237.734C201.25 237.594 202.797 237.125 204.156 236.328C205.516 235.484 206.664 234.078 207.602 232.109C208.164 230.938 208.75 230.352 209.359 230.352C209.688 230.352 209.969 230.445 210.203 230.633C210.484 230.82 210.625 231.125 210.625 231.547C210.625 231.875 210.555 232.203 210.414 232.531C209.477 235.203 207.906 237.312 205.703 238.859C203.547 240.406 201.133 241.18 198.461 241.18C197.664 243.477 196.68 245.656 195.508 247.719C194.383 249.734 193.047 251.516 191.5 253.062C189.953 254.609 188.195 255.828 186.227 256.719C184.258 257.609 182.078 258.055 179.688 258.055C178.422 258.055 176.992 257.867 175.398 257.492C173.805 257.117 172.305 256.344 170.898 255.172C169.492 253.953 168.32 252.266 167.383 250.109C166.398 247.906 165.906 245 165.906 241.391C165.906 238.438 166.469 235.32 167.594 232.039C168.672 228.758 170.5 225.5 173.078 222.266C174.062 221.047 174.953 220.18 175.75 219.664C176.594 219.148 177.273 218.891 177.789 218.891C178.82 218.891 179.336 219.523 179.336 220.789C179.336 221.352 179.148 222.055 178.773 222.898C178.398 223.742 178 224.82 177.578 226.133C177.156 227.445 176.758 229.016 176.383 230.844C176.008 232.625 175.82 234.734 175.82 237.172C175.82 241.859 176.477 245.516 177.789 248.141C179.148 250.719 180.93 252.008 183.133 252.008ZM190.938 231.336C190.938 226.555 190.492 223.133 189.602 221.07C188.711 218.961 187.727 218.117 186.648 218.539C186.18 218.727 185.898 219.148 185.805 219.805C185.758 220.461 185.734 221.094 185.734 221.703C185.734 222.734 185.875 223.812 186.156 224.938C186.438 226.062 186.789 227.188 187.211 228.312C187.68 229.438 188.219 230.516 188.828 231.547C189.484 232.531 190.164 233.445 190.867 234.289C190.914 233.773 190.938 233.281 190.938 232.812C190.938 232.344 190.938 231.852 190.938 231.336ZM243.055 232.531C241.977 236.188 240.875 239.562 239.75 242.656C238.625 245.75 237.43 248.422 236.164 250.672C234.898 252.922 233.492 254.68 231.945 255.945C230.445 257.211 228.734 257.844 226.812 257.844C224.469 257.844 222.57 256.672 221.117 254.328C219.711 251.938 219.008 248.797 219.008 244.906C219.008 243.219 219.078 241.625 219.219 240.125C219.406 238.625 219.594 237.172 219.781 235.766C220.016 234.359 220.203 233 220.344 231.688C220.531 230.375 220.625 229.086 220.625 227.82C220.625 226.461 220.461 225.57 220.133 225.148C219.805 224.727 219.383 224.516 218.867 224.516C218.773 224.516 218.68 224.539 218.586 224.586C218.492 224.586 218.305 224.609 218.023 224.656C217.789 224.656 217.414 224.703 216.898 224.797C216.43 224.844 215.773 224.914 214.93 225.008C214.414 226.133 213.992 227.094 213.664 227.891C213.336 228.641 213.055 229.297 212.82 229.859C212.586 230.422 212.375 230.914 212.188 231.336C212.047 231.711 211.906 232.109 211.766 232.531C211.391 233.422 211.062 233.984 210.781 234.219C210.5 234.406 210.172 234.5 209.797 234.5C209.516 234.5 209.281 234.383 209.094 234.148C208.859 233.914 208.742 233.586 208.742 233.164C208.742 232.883 208.812 232.555 208.953 232.18C209.094 231.758 209.258 231.242 209.445 230.633C209.68 229.977 209.914 229.156 210.148 228.172C210.43 227.188 210.711 225.969 210.992 224.516C210.055 224.094 209.258 223.109 208.602 221.562C207.898 219.969 207.547 218.117 207.547 216.008C207.547 214.273 207.852 212.516 208.461 210.734C209.023 208.953 209.727 207.336 210.57 205.883C211.461 204.383 212.398 203.164 213.383 202.227C214.414 201.289 215.328 200.82 216.125 200.82C217.156 200.82 218.023 201.453 218.727 202.719C219.477 203.938 219.852 205.344 219.852 206.938C219.852 207.781 219.758 208.648 219.57 209.539C219.383 210.383 219.172 211.18 218.938 211.93C218.75 212.633 218.562 213.289 218.375 213.898C218.188 214.461 218.094 214.906 218.094 215.234C218.094 215.656 218.258 215.867 218.586 215.867C218.82 215.867 219.242 215.75 219.852 215.516L223.297 213.969C224.562 213.453 225.641 213.195 226.531 213.195C228.031 213.195 229.016 213.664 229.484 214.602C230 215.539 230.258 216.922 230.258 218.75C230.258 219.547 230.164 220.953 229.977 222.969C229.789 224.938 229.578 227.141 229.344 229.578C229.156 231.969 228.969 234.359 228.781 236.75C228.641 239.141 228.57 241.086 228.57 242.586C228.57 244.227 228.734 245.445 229.062 246.242C229.438 246.992 230.211 247.367 231.383 247.367C232.227 247.367 233.047 246.875 233.844 245.891C234.688 244.906 235.484 243.664 236.234 242.164C236.984 240.664 237.688 239.023 238.344 237.242C239.047 235.461 239.68 233.75 240.242 232.109C240.664 230.938 241.273 230.352 242.07 230.352C242.82 230.352 243.195 230.773 243.195 231.617C243.195 231.758 243.172 231.898 243.125 232.039C243.125 232.18 243.102 232.344 243.055 232.531Z" fill="white"/>
<path d="M331 269.304C321.688 269.304 313.384 267.192 306.088 262.968C298.888 258.744 293.224 252.648 289.096 244.68C285.064 236.712 283.048 227.16 283.048 216.024C283.048 205.176 285.016 195.768 288.952 187.8C292.888 179.736 298.504 173.496 305.8 169.08C313.096 164.664 321.64 162.456 331.432 162.456C344.776 162.456 355.144 165.768 362.536 172.392C370.024 178.92 374.824 188.28 376.936 200.472L354.184 201.336C353.032 194.904 350.536 189.912 346.696 186.36C342.856 182.712 337.768 180.888 331.432 180.888C325.96 180.888 321.304 182.328 317.464 185.208C313.624 188.088 310.696 192.168 308.68 197.448C306.664 202.728 305.656 208.92 305.656 216.024C305.656 223.224 306.664 229.464 308.68 234.744C310.792 239.928 313.768 243.912 317.608 246.696C321.448 249.48 326.008 250.872 331.288 250.872C338.2 250.872 343.528 248.952 347.272 245.112C351.112 241.176 353.512 235.752 354.472 228.84L377.368 229.704C376.024 238.056 373.384 245.16 369.448 251.016C365.512 256.872 360.328 261.384 353.896 264.552C347.56 267.72 339.928 269.304 331 269.304ZM415.98 268.728C408.108 268.728 401.244 267.096 395.388 263.832C389.532 260.472 384.972 255.768 381.708 249.72C378.444 243.672 376.812 236.568 376.812 228.408C376.812 220.248 378.444 213.192 381.708 207.24C384.972 201.192 389.532 196.488 395.388 193.128C401.244 189.768 408.108 188.088 415.98 188.088C423.852 188.088 430.716 189.768 436.572 193.128C442.428 196.488 446.988 201.192 450.252 207.24C453.516 213.192 455.148 220.248 455.148 228.408C455.148 236.568 453.516 243.672 450.252 249.72C446.988 255.768 442.428 260.472 436.572 263.832C430.716 267.096 423.852 268.728 415.98 268.728ZM415.98 252.168C421.356 252.168 425.532 250.104 428.508 245.976C431.484 241.752 432.972 235.896 432.972 228.408C432.972 220.92 431.484 215.112 428.508 210.984C425.532 206.76 421.356 204.648 415.98 204.648C410.604 204.648 406.428 206.76 403.452 210.984C400.476 215.112 398.988 220.92 398.988 228.408C398.988 235.896 400.476 241.752 403.452 245.976C406.428 250.104 410.604 252.168 415.98 252.168ZM458.598 267V189.816H478.038L478.758 208.392L476.742 207.528C477.798 203.4 479.382 199.896 481.494 197.016C483.702 194.136 486.342 191.928 489.414 190.392C492.486 188.856 495.846 188.088 499.494 188.088C505.926 188.088 511.11 189.96 515.046 193.704C519.078 197.448 521.67 202.488 522.822 208.824L520.086 208.968C520.95 204.456 522.438 200.664 524.55 197.592C526.758 194.424 529.446 192.072 532.614 190.536C535.782 188.904 539.334 188.088 543.27 188.088C548.646 188.088 553.254 189.192 557.094 191.4C560.934 193.608 563.91 196.92 566.022 201.336C568.134 205.656 569.19 210.984 569.19 217.32V267H547.59V223.368C547.59 217.32 546.678 212.808 544.854 209.832C543.03 206.76 540.054 205.224 535.926 205.224C533.334 205.224 531.126 205.944 529.302 207.384C527.478 208.824 526.038 210.936 524.982 213.72C524.022 216.408 523.542 219.72 523.542 223.656V267H504.102V223.656C504.102 217.704 503.238 213.144 501.51 209.976C499.782 206.808 496.806 205.224 492.582 205.224C489.99 205.224 487.734 205.944 485.814 207.384C483.99 208.824 482.598 210.936 481.638 213.72C480.678 216.504 480.198 219.816 480.198 223.656V267H458.598ZM576.004 288.6V189.816H596.74L597.172 206.088L595.444 205.368C597.364 199.8 600.484 195.528 604.804 192.552C609.124 189.576 614.164 188.088 619.924 188.088C627.124 188.088 633.124 189.864 637.924 193.416C642.724 196.968 646.324 201.816 648.724 207.96C651.22 214.008 652.468 220.824 652.468 228.408C652.468 235.896 651.22 242.712 648.724 248.856C646.324 255 642.676 259.848 637.78 263.4C632.98 266.952 626.98 268.728 619.78 268.728C616.036 268.728 612.532 268.056 609.268 266.712C606.004 265.272 603.172 263.304 600.772 260.808C598.468 258.312 596.788 255.336 595.732 251.88L597.604 250.728V288.6H576.004ZM613.876 252.168C618.964 252.168 622.948 250.056 625.828 245.832C628.804 241.608 630.292 235.8 630.292 228.408C630.292 221.016 628.804 215.208 625.828 210.984C622.948 206.76 618.964 204.648 613.876 204.648C610.516 204.648 607.588 205.56 605.092 207.384C602.692 209.112 600.82 211.752 599.476 215.304C598.228 218.856 597.604 223.224 597.604 228.408C597.604 233.592 598.228 237.96 599.476 241.512C600.82 245.064 602.692 247.752 605.092 249.576C607.588 251.304 610.516 252.168 613.876 252.168ZM676.727 267C670.391 267 665.447 265.416 661.895 262.248C658.343 259.08 656.566 253.944 656.566 246.84V164.76H678.167V244.536C678.167 246.84 678.695 248.472 679.751 249.432C680.807 250.392 682.343 250.872 684.359 250.872H689.543V267H676.727ZM725.005 268.728C717.133 268.728 710.269 267.096 704.413 263.832C698.653 260.472 694.141 255.768 690.877 249.72C687.709 243.672 686.125 236.568 686.125 228.408C686.125 220.248 687.709 213.192 690.877 207.24C694.141 201.192 698.653 196.488 704.413 193.128C710.173 189.768 716.989 188.088 724.861 188.088C732.541 188.088 739.213 189.768 744.877 193.128C750.541 196.488 754.909 201.288 757.981 207.528C761.149 213.768 762.733 221.208 762.733 229.848V234.168H708.445C708.733 240.312 710.365 244.872 713.341 247.848C716.413 250.824 720.445 252.312 725.437 252.312C729.085 252.312 732.109 251.544 734.509 250.008C737.005 248.472 738.781 246.12 739.837 242.952L761.581 244.248C759.565 251.928 755.293 257.928 748.765 262.248C742.237 266.568 734.317 268.728 725.005 268.728ZM708.445 220.92H740.557C740.269 215.256 738.685 211.032 735.805 208.248C733.021 205.464 729.373 204.072 724.861 204.072C720.349 204.072 716.605 205.56 713.629 208.536C710.749 211.416 709.021 215.544 708.445 220.92ZM755.468 267L782.972 227.832L756.188 189.816H779.084L795.644 214.584L811.628 189.816H835.1L808.46 227.976L835.82 267H812.924L795.932 240.792L778.796 267H755.468ZM865.922 267V164.76H901.202C917.81 164.76 930.578 169.224 939.506 178.152C948.434 186.984 952.898 199.608 952.898 216.024C952.898 232.344 948.482 244.92 939.65 253.752C930.914 262.584 918.386 267 902.066 267H865.922ZM887.81 248.568H901.202C911.09 248.568 918.386 245.928 923.09 240.648C927.89 235.272 930.29 227.016 930.29 215.88C930.29 204.744 927.89 196.536 923.09 191.256C918.386 185.88 911.09 183.192 901.202 183.192H887.81V248.568ZM981.728 268.728C973.76 268.728 967.232 266.904 962.144 263.256C957.152 259.512 954.656 254.328 954.656 247.704C954.656 240.888 956.768 235.656 960.992 232.008C965.312 228.264 971.648 225.528 980 223.8L1004.91 218.904C1004.91 213.912 1003.76 210.168 1001.46 207.672C999.248 205.08 996.032 203.784 991.808 203.784C987.68 203.784 984.464 204.744 982.16 206.664C979.856 208.488 978.368 211.224 977.696 214.872L955.952 213.864C957.392 205.416 961.184 199.032 967.328 194.712C973.568 190.296 981.728 188.088 991.808 188.088C1003.33 188.088 1011.97 190.824 1017.73 196.296C1023.58 201.768 1026.51 209.784 1026.51 220.344V246.696C1026.51 248.904 1026.85 250.392 1027.52 251.16C1028.29 251.832 1029.39 252.168 1030.83 252.168H1032.99V267C1032.32 267.192 1031.22 267.384 1029.68 267.576C1028.24 267.768 1026.8 267.864 1025.36 267.864C1022.29 267.864 1019.41 267.336 1016.72 266.28C1014.13 265.224 1012.02 263.448 1010.38 260.952C1008.75 258.36 1007.94 254.712 1007.94 250.008L1009.81 251.448C1008.85 254.904 1007.12 257.928 1004.62 260.52C1002.22 263.112 999.056 265.128 995.12 266.568C991.28 268.008 986.816 268.728 981.728 268.728ZM986.912 253.896C990.464 253.896 993.584 253.224 996.272 251.88C998.96 250.44 1001.07 248.376 1002.61 245.688C1004.14 243 1004.91 239.832 1004.91 236.184V232.44L987.344 236.184C983.888 236.856 981.248 238.008 979.424 239.64C977.696 241.176 976.832 243.192 976.832 245.688C976.832 248.28 977.696 250.296 979.424 251.736C981.152 253.176 983.648 253.896 986.912 253.896ZM1062.08 267C1054.11 267 1048.26 265.176 1044.51 261.528C1040.77 257.784 1038.9 251.88 1038.9 243.816V171.672H1060.5V241.224C1060.5 244.968 1061.27 247.512 1062.8 248.856C1064.43 250.2 1066.83 250.872 1070 250.872H1080.8V267H1062.08ZM1026.51 205.944V189.816H1080.8V205.944H1026.51ZM1106.01 268.728C1098.04 268.728 1091.51 266.904 1086.43 263.256C1081.43 259.512 1078.94 254.328 1078.94 247.704C1078.94 240.888 1081.05 235.656 1085.27 232.008C1089.59 228.264 1095.93 225.528 1104.28 223.8L1129.19 218.904C1129.19 213.912 1128.04 210.168 1125.74 207.672C1123.53 205.08 1120.31 203.784 1116.09 203.784C1111.96 203.784 1108.75 204.744 1106.44 206.664C1104.14 208.488 1102.65 211.224 1101.98 214.872L1080.23 213.864C1081.67 205.416 1085.47 199.032 1091.61 194.712C1097.85 190.296 1106.01 188.088 1116.09 188.088C1127.61 188.088 1136.25 190.824 1142.01 196.296C1147.87 201.768 1150.79 209.784 1150.79 220.344V246.696C1150.79 248.904 1151.13 250.392 1151.8 251.16C1152.57 251.832 1153.67 252.168 1155.11 252.168H1157.27V267C1156.6 267.192 1155.5 267.384 1153.96 267.576C1152.52 267.768 1151.08 267.864 1149.64 267.864C1146.57 267.864 1143.69 267.336 1141 266.28C1138.41 265.224 1136.3 263.448 1134.67 260.952C1133.03 258.36 1132.22 254.712 1132.22 250.008L1134.09 251.448C1133.13 254.904 1131.4 257.928 1128.91 260.52C1126.51 263.112 1123.34 265.128 1119.4 266.568C1115.56 268.008 1111.1 268.728 1106.01 268.728ZM1111.19 253.896C1114.75 253.896 1117.87 253.224 1120.55 251.88C1123.24 250.44 1125.35 248.376 1126.89 245.688C1128.43 243 1129.19 239.832 1129.19 236.184V232.44L1111.63 236.184C1108.17 236.856 1105.53 238.008 1103.71 239.64C1101.98 241.176 1101.11 243.192 1101.11 245.688C1101.11 248.28 1101.98 250.296 1103.71 251.736C1105.43 253.176 1107.93 253.896 1111.19 253.896Z" fill="white"/>
</svg>
