<svg width="24" height="24" viewBox="0 0 24 24" fill="none" xmlns="http://www.w3.org/2000/svg">
<path d="M13 11L18 6M12.2031 14.5L6.59903 20.1041C6.07121 20.6319 5.21546 20.6319 4.68764 20.1041L3.89592 19.3124C3.36811 18.7845 3.36811 17.9288 3.89592 17.401L9.5 11.7969M17 5L19 7L20.5 4.5L19.5 3.5L17 5ZM3.23548 5.23548C2.75095 6.48836 3.01416 7.96391 4.02513 8.97487C5.03571 9.98546 6.51053 10.2489 7.76312 9.76507L14.2349 16.2369C13.7511 17.4895 14.0145 18.9643 15.0251 19.9749C16.0361 20.9858 17.5116 21.2491 18.7645 20.7645L17.3425 19.3425V17.3425L19.3425 17.3425L20.7645 18.7645C21.2491 17.5116 20.9858 16.0361 19.9749 15.0251C18.9635 14.0138 17.4873 13.7508 16.2341 14.236L9.76398 7.76593C10.2493 6.51274 9.98621 5.03647 8.97487 4.02513C7.96391 3.01416 6.48836 2.75095 5.23548 3.23548L6.65748 4.65748V6.65748H4.65748L3.23548 5.23548Z" stroke="#18181B" stroke-width="1.5" stroke-linejoin="round"/>
</svg>
