<svg width="132" height="121" viewBox="0 0 132 121" fill="none" xmlns="http://www.w3.org/2000/svg">
<path d="M26.3079 81.4517C25.5224 81.3622 24.6964 81.1551 23.9257 80.6003C23.1553 80.0458 22.698 79.3296 22.3651 78.6149C22.0661 77.9731 20.5596 73.4767 20.5596 73.4767C20.5596 73.4767 19.8237 72.2311 19.2193 71.8347C18.0324 71.0562 16.8348 70.8872 16.0545 71.0562C16.0545 71.0562 10.769 72.5443 10.0226 72.6624C9.19236 72.7938 8.28416 72.8106 7.34503 72.4299C6.40619 72.0493 5.76735 71.4057 5.2644 70.7345L1.22318 63.7607C0.90684 63.0326 0.673468 62.2105 0.773397 61.2625C0.873335 60.3144 1.27306 59.5587 1.73446 58.912C2.14877 58.3314 5.64045 54.4445 6.24456 53.7751C6.24456 53.7751 6.97506 52.655 6.97506 51.2518C6.97506 49.609 6.24451 48.7291 6.24451 48.7291C6.24451 48.7291 2.14876 44.1729 1.73445 43.5922C1.27305 42.9456 0.87333 42.1899 0.773392 41.2418C0.67347 40.2937 0.906832 39.4717 1.22318 38.7435C1.50728 38.0896 5.26443 31.7697 5.26443 31.7697C5.76739 31.0985 6.4062 30.4549 7.345 30.0743C8.28412 29.6936 9.19231 29.7104 10.0225 29.8418C10.7689 29.9599 15.1277 31.1857 16.0547 31.448C16.0547 31.448 17.5417 31.7697 19.2191 30.6696C19.8236 30.2732 20.292 29.7 20.5597 29.0274C20.5597 29.0274 22.0661 24.5314 22.3651 23.8895C22.698 23.1749 23.1553 22.4587 23.9257 21.9042C24.6964 21.3494 25.5224 21.1423 26.3079 21.0527H34.1865C34.972 21.1423 35.798 21.3494 36.5687 21.9042C37.3391 22.4587 37.7964 23.1749 38.1293 23.8895C38.4283 24.5314 39.9347 29.0274 39.9347 29.0274C40.2024 29.7 40.6708 30.2732 41.2753 30.6696C42.9527 31.7697 44.4397 31.448 44.4397 31.448C45.3667 31.1857 49.7254 29.9599 50.4719 29.8418C51.3021 29.7104 52.2103 29.6936 53.1494 30.0743C54.0882 30.4549 54.727 31.0985 55.23 31.7697C55.23 31.7697 58.9871 38.0896 59.2712 38.7435C59.5876 39.4717 59.8209 40.2937 59.721 41.2418C59.6211 42.1899 59.2213 42.9456 58.7599 43.5922C58.3456 44.1729 54.2499 48.7291 54.2499 48.7291C54.2499 48.7291 53.5193 49.609 53.5193 51.2518C53.5193 52.655 54.2498 53.7751 54.2498 53.7751C54.8539 54.4445 58.3456 58.3314 58.7599 58.912C59.2213 59.5587 59.6211 60.3144 59.721 61.2625C59.8209 62.2105 59.5876 63.0326 59.2712 63.7607L55.23 70.7345C54.727 71.4057 54.0882 72.0493 53.1494 72.4299C52.2102 72.8106 51.302 72.7938 50.4718 72.6624C49.7254 72.5443 44.4399 71.0562 44.4399 71.0562C43.6596 70.8872 42.462 71.0562 41.2751 71.8347C40.6707 72.2311 39.9348 73.4767 39.9348 73.4767C39.9348 73.4767 38.4283 77.9731 38.1293 78.6149C37.7964 79.3296 37.3391 80.0458 36.5687 80.6003C35.798 81.1551 34.972 81.3622 34.1865 81.4517H26.3079Z" stroke="#666666" stroke-width="1.5" stroke-linecap="round"/>
<path d="M30.1152 36.6909L30.1152 36.2743H30.1152L30.1152 36.6909ZM44.3535 50.9292L44.7702 50.9292V50.9292L44.3535 50.9292ZM30.1152 65.1675L30.1152 65.5841H30.1152L30.1152 65.1675ZM15.877 50.9292L15.4603 50.9292V50.9292L15.877 50.9292ZM29.9609 40.4683L29.961 40.0516L29.9609 40.0516L29.9609 40.4683ZM19.71 50.7192L19.2933 50.7192V50.7192H19.71ZM29.9609 60.9712L29.9609 61.3879H29.961L29.9609 60.9712ZM40.2129 50.7192H40.6296V50.7192L40.2129 50.7192ZM30.1152 36.6909L30.1152 37.1076C37.7486 37.1076 43.9368 43.2958 43.9368 50.9292L44.3535 50.9292L44.7702 50.9292C44.7701 42.8356 38.2088 36.2743 30.1152 36.2743L30.1152 36.6909ZM44.3535 50.9292L43.9368 50.9292C43.9367 58.5625 37.7486 64.7508 30.1152 64.7508L30.1152 65.1675L30.1152 65.5841C38.2088 65.5841 44.77 59.0227 44.7702 50.9292L44.3535 50.9292ZM30.1152 65.1675L30.1152 64.7508C22.4819 64.7508 16.2937 58.5625 16.2936 50.9292L15.877 50.9292L15.4603 50.9292C15.4604 59.0227 22.0217 65.5841 30.1152 65.5841L30.1152 65.1675ZM15.877 50.9292L16.2936 50.9292C16.2937 43.2959 22.4819 37.1076 30.1152 37.1076L30.1152 36.6909L30.1152 36.2743C22.0217 36.2743 15.4604 42.8356 15.4603 50.9292L15.877 50.9292ZM29.9609 40.4683L29.9609 40.0516C24.0696 40.0518 19.2936 44.828 19.2933 50.7192L19.71 50.7192L20.1266 50.7193C20.1269 45.2882 24.5299 40.8851 29.961 40.8849L29.9609 40.4683ZM19.71 50.7192H19.2933C19.2933 56.6108 24.0694 61.3877 29.9609 61.3879L29.9609 60.9712L29.961 60.5545C24.5297 60.5543 20.1266 56.1506 20.1266 50.7192H19.71ZM29.9609 60.9712L29.961 61.3879C35.8524 61.3876 40.6296 56.6108 40.6296 50.7192H40.2129H39.7962C39.7962 56.1505 35.3922 60.5543 29.9609 60.5545L29.9609 60.9712ZM40.2129 50.7192L40.6296 50.7192C40.6292 44.8279 35.8522 40.0518 29.961 40.0516L29.9609 40.4683L29.9609 40.8849C35.392 40.8851 39.7959 45.2883 39.7962 50.7193L40.2129 50.7192Z" fill="#F2500D"/>
<path fill-rule="evenodd" clip-rule="evenodd" d="M92.5218 6.86579L93.3142 8.24088C93.8759 9.2157 94.1567 9.7031 94.1022 10.222C94.0477 10.7408 93.6717 11.159 92.9198 11.9952L91.2646 13.8456C90.8601 14.3578 90.5729 15.2502 90.5729 16.0526C90.5729 16.8555 90.86 17.7478 91.2646 18.26L92.9198 20.1104C93.6717 20.9467 94.0477 21.3648 94.1022 21.8837C94.1567 22.4026 93.8759 22.89 93.3142 23.8648L92.5218 25.2398C91.9226 26.2798 91.623 26.7998 91.1131 27.0071C90.6033 27.2145 90.0268 27.0508 88.8736 26.7236L86.9149 26.1718C86.1786 26.002 85.406 26.0984 84.7337 26.4439L84.193 26.756C83.6167 27.1252 83.1734 27.6695 82.928 28.3092L82.3919 29.9105C82.0394 30.97 81.8632 31.4998 81.4436 31.8028C81.024 32.1058 80.4667 32.1058 79.352 32.1058H77.5625C76.4479 32.1058 75.8905 32.1058 75.471 31.8028C75.0514 31.4998 74.8751 30.97 74.5227 29.9105L73.9865 28.3092C73.7411 27.6695 73.2978 27.1252 72.7215 26.756L72.1808 26.4439C71.5085 26.0984 70.736 26.002 69.9997 26.1718L68.0409 26.7236C66.8878 27.0508 66.3112 27.2145 65.8014 27.0071C65.2916 26.7998 64.992 26.2798 64.3927 25.2398L63.6004 23.8648C63.0387 22.89 62.7578 22.4026 62.8123 21.8837C62.8669 21.3648 63.2428 20.9467 63.9948 20.1104L65.65 18.26C66.0545 17.7478 66.3416 16.8555 66.3416 16.0526C66.3416 15.2502 66.0544 14.3578 65.6499 13.8456L63.9948 11.9952C63.2428 11.159 62.8668 10.7408 62.8123 10.222C62.7578 9.7031 63.0387 9.2157 63.6004 8.24088L64.3927 6.86579C64.992 5.82584 65.2916 5.30586 65.8014 5.09851C66.3112 4.89116 66.8878 5.05478 68.0409 5.38201L69.9997 5.93374C70.7359 6.10351 71.5083 6.0072 72.1805 5.66183L72.7213 5.3498C73.2978 4.98061 73.7411 4.43625 73.9866 3.7964L74.5227 2.1953C74.8751 1.13578 75.0514 0.606022 75.471 0.303011C75.8905 0 76.4479 0 77.5625 0H79.352C80.4667 0 81.024 0 81.4436 0.303011C81.8632 0.606022 82.0394 1.13578 82.3919 2.1953L82.928 3.7964C83.1734 4.43625 83.6168 4.98061 84.1932 5.3498L84.734 5.66183C85.4062 6.0072 86.1786 6.10351 86.9148 5.93374L88.8736 5.38201C90.0268 5.05478 90.6033 4.89116 91.1131 5.09851C91.6229 5.30586 91.9226 5.82584 92.5218 6.86579ZM78.3883 21.6589C81.4913 21.6589 84.0068 19.1434 84.0068 16.0404C84.0068 12.9373 81.4913 10.4218 78.3883 10.4218C75.2852 10.4218 72.7697 12.9373 72.7697 16.0404C72.7697 19.1434 75.2852 21.6589 78.3883 21.6589Z" fill="#F2500D"/>
<path d="M130.393 84.4248L130.059 81.043C129.806 78.4854 129.679 77.2066 128.867 76.3527C128.055 75.4988 126.785 75.3101 124.247 74.9326L119.938 74.2832C118.351 73.9658 116.929 73.0973 115.921 71.8309L115.141 70.7454C114.341 69.517 113.955 68.0639 114.04 66.5989L114.405 63.0018C114.651 60.6235 114.773 59.4343 114.222 58.4732C113.67 57.5122 112.582 57.0211 110.407 56.0389L106.914 54.4619C104.739 53.4797 103.651 52.9886 102.565 53.2103C101.48 53.4319 100.669 54.3105 99.0473 56.0676L96.5902 58.7199C95.5474 59.7524 94.2025 60.424 92.7522 60.6366L91.4218 60.769C89.8056 60.8507 88.2134 60.3581 86.9262 59.378L83.5896 56.5752C81.6275 54.9204 80.6464 54.0931 79.4688 54.0485C78.2911 54.0039 77.2482 54.7547 75.1623 56.2562L72.4043 58.2416C70.4491 59.6491 69.4715 60.3528 69.1207 61.4135C68.7698 62.4741 69.1351 63.6214 69.8658 65.9161L71.4653 70.9858C71.8035 72.3418 71.5776 74.3366 70.8705 75.9025C70.163 77.4695 68.8165 78.9578 67.5756 79.6009L62.7148 81.7537C60.5104 82.7231 59.4082 83.2078 58.8446 84.1724C58.281 85.137 58.3996 86.3357 58.6368 88.7331L58.9715 92.1148C59.2246 94.6723 59.3511 95.9513 60.1633 96.8052C60.9756 97.659 62.245 97.8478 64.7838 98.2252L69.0927 98.8745C70.6793 99.1919 72.1021 100.061 73.1096 101.327L73.8899 102.413C74.6893 103.641 75.0748 105.094 74.9899 106.559L74.6253 110.156C74.3795 112.535 74.2567 113.724 74.8085 114.685C75.3604 115.646 76.448 116.137 78.6234 117.119L82.1158 118.696C84.2911 119.678 85.3788 120.17 86.4647 119.948C87.5505 119.726 88.3613 118.848 89.9828 117.091L92.4402 114.438C93.4828 113.406 94.8275 112.734 96.2776 112.521L97.6078 112.389C99.2243 112.307 100.817 112.8 102.104 113.78L105.441 116.583C107.403 118.237 108.384 119.065 109.562 119.109C110.739 119.154 111.782 118.403 113.868 116.902L116.626 114.916C118.581 113.509 119.559 112.805 119.91 111.744C120.26 110.684 119.895 109.536 119.164 107.242L117.565 102.172C117.227 100.816 117.453 98.8216 118.16 97.2546C118.867 95.6887 120.214 94.2 121.455 93.557L126.315 91.4042C128.52 90.4348 129.622 89.9501 130.186 88.9855C130.749 88.0209 130.631 86.8222 130.393 84.4248Z" stroke="#F2500D" stroke-width="1.5" stroke-linecap="round"/>
<path d="M81.415 80.6362C84.651 73.4696 93.0843 70.2825 100.251 73.5181C107.418 76.754 110.605 85.1872 107.369 92.354C104.133 99.5208 95.7 102.708 88.5332 99.4722C81.3666 96.2362 78.1794 87.803 81.415 80.6362ZM98.5557 76.897C93.3959 74.5675 87.324 76.8614 84.9941 82.021C82.6644 87.1808 84.9584 93.2536 90.1182 95.5835C95.2781 97.9132 101.351 95.6183 103.681 90.4585C106.01 85.2987 103.715 79.2268 98.5557 76.897Z" fill="#F2500D"/>
<path d="M31.2568 91.2046C32.2679 95.0725 35.751 103.543 41.5946 106.483" stroke="#666666" stroke-width="1.5"/>
<path d="M122.921 50.8115C124.02 46.9676 125.334 37.9034 121.8 32.3983" stroke="#666666" stroke-width="1.5"/>
<path d="M36.7891 86.686C38.1301 90.8098 44.4348 99.7787 58.9251 102.665M58.9251 102.665L54.6736 96.7396M58.9251 102.665L52.5922 104.419" stroke="#666666" stroke-width="1.5"/>
<path d="M116.544 52.2876C117.21 48.0027 115.635 37.1533 104.01 28.0346M104.01 28.0346L105.127 35.2409M104.01 28.0346L110.452 29.3289" stroke="#666666" stroke-width="1.5"/>
</svg>
